<?xml version="1.0" encoding="UTF-8"?>
<svg width="200px" height="99px" viewBox="0 0 200 99" version="1.1" xmlns="http://www.w3.org/2000/svg" xmlns:xlink="http://www.w3.org/1999/xlink">
    <title>暂无数据</title>
    <defs>
        <linearGradient x1="49.9970377%" y1="100.009591%" x2="49.9970377%" y2="0.0309946714%" id="linearGradient-1">
            <stop stop-color="#FFFFFF" stop-opacity="0" offset="0%"></stop>
            <stop stop-color="#D9D9D9" offset="100%"></stop>
        </linearGradient>
        <linearGradient x1="5.82715028%" y1="94.6065217%" x2="90.0534735%" y2="0.108695652%" id="linearGradient-2">
            <stop stop-color="#FFFFFF" stop-opacity="0.6" offset="0%"></stop>
            <stop stop-color="#FDFDFE" stop-opacity="0" offset="4.044725%"></stop>
            <stop stop-color="#ECF0F6" stop-opacity="0.1752" offset="20.85%"></stop>
            <stop stop-color="#DAE2EE" stop-opacity="0.4249" offset="44.82%"></stop>
            <stop stop-color="#CFDAEA" stop-opacity="0.6912" offset="70.37%"></stop>
            <stop stop-color="#CCD7E8" offset="100%"></stop>
            <stop stop-color="#A2A2BC" offset="100%"></stop>
        </linearGradient>
        <linearGradient x1="99.3914053%" y1="49.9236626%" x2="2.69593005%" y2="49.9236626%" id="linearGradient-3">
            <stop stop-color="#EDEDED" stop-opacity="0.6" offset="0%"></stop>
            <stop stop-color="#D7D7D7" offset="100%"></stop>
        </linearGradient>
        <linearGradient x1="-0.0928%" y1="50.2557143%" x2="100.2776%" y2="50.2557143%" id="linearGradient-4">
            <stop stop-color="#FFFFFF" stop-opacity="0.6" offset="0%"></stop>
            <stop stop-color="#CCD7E8" offset="100%"></stop>
            <stop stop-color="#CCD7E8" stop-opacity="0.98" offset="100%"></stop>
        </linearGradient>
        <linearGradient x1="99.3914053%" y1="49.9236626%" x2="2.69593005%" y2="49.9236626%" id="linearGradient-5">
            <stop stop-color="#FFFFFF" stop-opacity="0.95" offset="0%"></stop>
            <stop stop-color="#D7D7D7" offset="100%"></stop>
        </linearGradient>
        <linearGradient x1="49.9970861%" y1="92.9685457%" x2="49.9970861%" y2="-42.9700113%" id="linearGradient-6">
            <stop stop-color="#FFFFFF" stop-opacity="0" offset="0%"></stop>
            <stop stop-color="#B5B5B5" stop-opacity="0.98" offset="100%"></stop>
        </linearGradient>
        <linearGradient x1="0.364373507%" y1="49.9407276%" x2="97.3296917%" y2="49.9407276%" id="linearGradient-7">
            <stop stop-color="#B4B4B4" offset="0%"></stop>
            <stop stop-color="#D5D5D5" offset="100%"></stop>
        </linearGradient>
        <linearGradient x1="0.31178672%" y1="49.9407276%" x2="88.8771286%" y2="49.9407276%" id="linearGradient-8">
            <stop stop-color="#E5E7E6" offset="0%"></stop>
            <stop stop-color="#D3D3D3" stop-opacity="0.98" offset="100%"></stop>
        </linearGradient>
        <linearGradient x1="0.336511685%" y1="49.9634218%" x2="99.9439916%" y2="49.9634218%" id="linearGradient-9">
            <stop stop-color="#D0D0D0" offset="0%"></stop>
            <stop stop-color="#E1E1E1" stop-opacity="0.98" offset="100%"></stop>
        </linearGradient>
        <linearGradient x1="0.336511685%" y1="49.9634218%" x2="99.9439916%" y2="49.9634218%" id="linearGradient-10">
            <stop stop-color="#C2C2C2" offset="0%"></stop>
            <stop stop-color="#E7E7E7" stop-opacity="0.98" offset="100%"></stop>
        </linearGradient>
        <linearGradient x1="0.143974147%" y1="50.0625799%" x2="83.859155%" y2="73.8685931%" id="linearGradient-11">
            <stop stop-color="#CCCCCC" offset="0%"></stop>
            <stop stop-color="#FFFFFF" offset="100%"></stop>
        </linearGradient>
        <linearGradient x1="49.9563791%" y1="95.2150623%" x2="49.9563791%" y2="-0.0861924686%" id="linearGradient-12">
            <stop stop-color="#EBEBEB" offset="0%"></stop>
            <stop stop-color="#CCCCCC" offset="100%"></stop>
        </linearGradient>
    </defs>
    <g id="app设计规范" stroke="none" stroke-width="1" fill="none" fill-rule="evenodd">
        <g id="3-图标/提示" transform="translate(-81.000000, -3885.000000)">
            <g id="暂无数据" transform="translate(81.000000, 3885.000000)">
                <path d="M0.220994475,98.7845304 C0.220994475,64.4198895 44.9171271,36.5745856 100,36.5745856 C155.082873,36.5745856 199.779006,64.4198895 199.779006,98.7845304" id="路径" fill="url(#linearGradient-1)"></path>
                <rect id="矩形" fill="#DADADA" x="142.983425" y="38.0662983" width="1.49171271" height="5.3038674"></rect>
                <polygon id="路径" fill="url(#linearGradient-2)" points="140.994475 48.4530387 139.944751 48.4530387 142.983425 43.3701657 144.475138 43.3701657"></polygon>
                <path d="M150.220994,32.7071823 L148.342541,29.558011 C150.110497,28.839779 150.883978,26.5745856 149.558011,24.9171271 L144.917127,18.839779 C144.254144,18.0110497 143.038674,18.2872928 142.430939,19.1160221 L137.790055,24.9723757 C136.464088,26.6298343 137.237569,28.9502762 139.005525,29.6132597 L137.127072,32.7624309 C135.690608,35.1381215 137.403315,38.121547 140.165746,38.121547 L147.18232,38.121547 C149.944751,38.0662983 151.657459,35.0828729 150.220994,32.7071823 Z" id="路径" fill="url(#linearGradient-3)"></path>
                <g id="分组" transform="translate(20.994475, 31.270718)">
                    <rect id="矩形" fill="#DADADA" x="10" y="30.441989" width="2.26519337" height="8.06629834"></rect>
                    <polygon id="路径" fill="url(#linearGradient-4)" points="6.90607735 46.2430939 5.35911602 46.2430939 10 38.5082873 12.2651934 38.5082873"></polygon>
                    <path d="M21.1049724,22.320442 L18.2320442,17.5690608 C20.9392265,16.519337 22.0994475,12.9834254 20.1104972,10.441989 L13.038674,1.16022099 C12.0441989,-0.0552486188 10.2209945,0.331491713 9.22651934,1.54696133 L2.20994475,10.3867403 C0.220994475,12.9281768 1.38121547,16.4088398 4.08839779,17.5138122 L1.21546961,22.2651934 C-0.939226519,25.8563536 1.65745856,30.441989 5.80110497,30.441989 L16.4640884,30.441989 C20.6629834,30.441989 23.2596685,25.8563536 21.1049724,22.320442 Z" id="路径" fill="url(#linearGradient-5)"></path>
                </g>
                <polygon id="路径" fill="url(#linearGradient-6)" points="102.651934 92.9834254 40.2762431 81.7127072 53.7016575 45.2486188 123.701657 43.9779006"></polygon>
                <g id="分组" transform="translate(40.331492, 0.331492)">
                    <path d="M12.8729282,7.40331492 L12.8729282,7.40331492 L12.3756906,42.0994475 C12.3756906,43.8121547 13.3149171,45.4143646 14.8618785,46.1878453 L46.1878453,62.0994475 C46.6850829,62.320442 47.2375691,62.4861878 47.7900552,62.4861878 L47.8453039,0.220994475 C47.1823204,0.220994475 12.8729282,7.40331492 12.8729282,7.40331492 Z" id="路径" fill="url(#linearGradient-7)"></path>
                    <path d="M47.9005525,0.220994475 L47.9558011,62.4861878 C48.5082873,62.4861878 49.0607735,62.3756906 49.558011,62.0994475 L81.1049724,46.1878453 C82.6519337,45.4143646 83.6464088,43.8121547 83.6464088,42.0994475 L83.038674,7.40331492 L83.038674,7.40331492 C83.0939227,7.40331492 48.6187845,0.220994475 47.9005525,0.220994475 Z" id="路径" fill="url(#linearGradient-8)"></path>
                    <path d="M47.8453039,62.4309392 C48.3977901,62.4309392 48.9502762,62.320442 49.4475138,62.0441989 L80.7734807,46.1325967 C82.320442,45.359116 83.2596685,43.7569061 83.2596685,42.0441989 L83.3701657,8.61878453 C83.3701657,8.17679558 83.2596685,7.73480663 83.0939227,7.3480663 L48.0110497,18.121547 L47.8453039,62.4309392 Z" id="路径" fill="url(#linearGradient-9)" fill-rule="nonzero"></path>
                    <path d="M48.0110497,18.1767956 L12.8729282,7.40331492 C12.6519337,7.79005525 12.5414365,8.2320442 12.5414365,8.67403315 L12.3756906,42.0994475 C12.3756906,43.8121547 13.3149171,45.4143646 14.8618785,46.1878453 L46.1878453,62.0994475 C46.6850829,62.320442 47.2375691,62.4861878 47.7900552,62.4861878 L48.0110497,18.1767956 Z" id="路径" fill="url(#linearGradient-10)" fill-rule="nonzero"></path>
                    <path d="M12.8729282,7.40331492 L0.773480663,20.441989 C0.165745856,21.0497238 0.220994475,22.0441989 0.828729282,22.6519337 C0.939226519,22.7624309 1.04972376,22.8176796 1.16022099,22.8729282 L33.7016575,40.0552486 C34.5303867,40.4972376 35.5801105,40.3314917 36.1878453,39.6132597 L47.9558011,18.2320442 L12.8729282,7.40331492 Z" id="路径" fill="url(#linearGradient-11)" fill-rule="nonzero"></path>
                    <path d="M83.0939227,7.40331492 L95.1933702,20.4972376 C95.801105,21.1049724 95.801105,22.0994475 95.1381215,22.7071823 C95.0276243,22.8176796 94.9171271,22.9281768 94.7513812,22.9834254 L62.5414365,40.3314917 C61.7127072,40.7734807 60.6629834,40.6077348 60.0552486,39.8895028 L48.0110497,18.1767956 L83.0939227,7.40331492 Z" id="路径" fill="url(#linearGradient-12)"></path>
                </g>
            </g>
        </g>
    </g>
</svg>