<?xml version="1.0" encoding="UTF-8"?>
<svg width="190px" height="117px" viewBox="0 0 190 117" version="1.1" xmlns="http://www.w3.org/2000/svg" xmlns:xlink="http://www.w3.org/1999/xlink">
    <title>操作失败</title>
    <defs>
        <linearGradient x1="45.7472903%" y1="5.04350929%" x2="45.7472903%" y2="129.393705%" id="linearGradient-1">
            <stop stop-color="#ECF1FF" offset="0%"></stop>
            <stop stop-color="#FFFFFF" stop-opacity="0" offset="100%"></stop>
        </linearGradient>
        <linearGradient x1="49.9970861%" y1="92.9685457%" x2="49.9970861%" y2="-42.1663205%" id="linearGradient-2">
            <stop stop-color="#FFFFFF" stop-opacity="0" offset="0%"></stop>
            <stop stop-color="#A6C1FE" offset="100%"></stop>
        </linearGradient>
        <linearGradient x1="78.4334605%" y1="2.52190568%" x2="43.721425%" y2="44.4610308%" id="linearGradient-3">
            <stop stop-color="#B4D1FD" offset="0%"></stop>
            <stop stop-color="#92AAFF" stop-opacity="0" offset="100%"></stop>
        </linearGradient>
        <linearGradient x1="50%" y1="0%" x2="50%" y2="100%" id="linearGradient-4">
            <stop stop-color="#B4D1FD" offset="0%"></stop>
            <stop stop-color="#92AAFF" offset="100%"></stop>
        </linearGradient>
        <radialGradient cx="50%" cy="50%" fx="50%" fy="50%" r="50%" gradientTransform="translate(0.500000,0.500000),scale(0.192421,1.000000),rotate(-90.000000),scale(1.000000,5.347132),translate(-0.500000,-0.500000)" id="radialGradient-5">
            <stop stop-color="#C1D4FF" offset="0%"></stop>
            <stop stop-color="#F6F8FF" stop-opacity="0" offset="100%"></stop>
        </radialGradient>
        <linearGradient x1="19.3494499%" y1="15.5957259%" x2="85.11287%" y2="81.2112472%" id="linearGradient-6">
            <stop stop-color="#FFB5B5" offset="0%"></stop>
            <stop stop-color="#FF876B" offset="100%"></stop>
        </linearGradient>
        <linearGradient x1="100%" y1="50%" x2="5.32907052e-13%" y2="50%" id="linearGradient-7">
            <stop stop-color="#EFF5FF" offset="0%"></stop>
            <stop stop-color="#F2F5FF" stop-opacity="0.308511801" offset="100%"></stop>
        </linearGradient>
        <linearGradient x1="100%" y1="50%" x2="5.32907052e-13%" y2="50%" id="linearGradient-8">
            <stop stop-color="#EFF5FF" offset="0%"></stop>
            <stop stop-color="#F2F5FF" stop-opacity="0.308511801" offset="100%"></stop>
        </linearGradient>
    </defs>
    <g id="app设计规范" stroke="none" stroke-width="1" fill="none" fill-rule="evenodd">
        <g id="3-图标/提示" transform="translate(-371.000000, -3695.000000)">
            <g id="操作失败" transform="translate(371.000000, 3695.000000)">
                <path d="M95,63 C147.467051,63 190,87.1766235 190,117 L190,117 L0,117 C0,87.1766235 42.5329488,63 95,63 Z" id="形状结合备份-3" fill="url(#linearGradient-1)"></path>
                <polygon id="路径备份-2" fill="url(#linearGradient-2)" points="108.15718 116 46 116 59.3080511 79.7606788 122 79"></polygon>
                <g id="编组-12备份" transform="translate(58.000000, 0.000000)">
                    <rect id="矩形" fill="url(#linearGradient-3)" fill-rule="nonzero" opacity="0.381766183" x="3.5443038" y="0" width="62.9113924" height="78.0206186" rx="6"></rect>
                    <rect id="矩形" fill="url(#linearGradient-4)" fill-rule="nonzero" x="0" y="3.54639175" width="62.9113924" height="78.0206186" rx="6"></rect>
                    <ellipse id="椭圆形" fill="url(#radialGradient-5)" cx="54.0506329" cy="83.7835052" rx="11.5189873" ry="2.21649485"></ellipse>
                    <ellipse id="椭圆形" fill="url(#linearGradient-6)" cx="54.0506329" cy="67.3814433" rx="15.9493671" ry="15.9587629"></ellipse>
                    <path d="M47.1706623,71.896536 L58.5630674,60.4974197 C59.1918821,59.8682345 60.2116925,59.8679342 60.8408777,60.496749 C60.8411013,60.4969725 60.8413249,60.4971961 60.8415484,60.4974197 C61.470842,61.1270841 61.470842,62.1475786 60.8415484,62.777243 L49.4491433,74.1763593 C48.8203286,74.8055445 47.8005182,74.8058448 47.171333,74.17703 C47.1711094,74.1768065 47.1708858,74.176583 47.1706623,74.1763593 C46.5413687,73.5466949 46.5413687,72.5262004 47.1706623,71.896536 Z" id="矩形" fill="#FFFFFF"></path>
                    <path d="M58.5630674,74.1763593 L47.1706623,62.777243 C46.5413687,62.1475786 46.5413687,61.1270841 47.1706623,60.4974197 C47.799477,59.8682345 48.8192874,59.8679342 49.4484726,60.496749 C49.4486962,60.4969725 49.4489198,60.4971961 49.4491433,60.4974197 L60.8415484,71.896536 C61.470842,72.5262004 61.470842,73.5466949 60.8415484,74.1763593 C60.2127337,74.8055445 59.1929233,74.8058448 58.5637381,74.17703 C58.5635145,74.1768065 58.5632909,74.176583 58.5630674,74.1763593 Z" id="矩形" fill="#FFFFFF"></path>
                    <rect id="矩形" fill="url(#linearGradient-7)" fill-rule="nonzero" x="8.86075949" y="17.7319588" width="45.1898734" height="5.31958763" rx="2.65979381"></rect>
                    <rect id="矩形备份-17" fill="url(#linearGradient-7)" fill-rule="nonzero" x="8.86075949" y="31.9175258" width="45.1898734" height="5.31958763" rx="2.65979381"></rect>
                    <rect id="矩形备份-18" fill="url(#linearGradient-8)" fill-rule="nonzero" x="8.86075949" y="46.1030928" width="28.3544304" height="5.31958763" rx="2.65979381"></rect>
                </g>
            </g>
        </g>
    </g>
</svg>