<?xml version="1.0" encoding="UTF-8"?>
<svg width="146px" height="102px" viewBox="0 0 146 102" version="1.1" xmlns="http://www.w3.org/2000/svg" xmlns:xlink="http://www.w3.org/1999/xlink">
    <title>操作失败</title>
    <defs>
        <linearGradient x1="45.7472903%" y1="5.04350929%" x2="45.7472903%" y2="137.537605%" id="linearGradient-1">
            <stop stop-color="#E5EEFF" offset="0%"></stop>
            <stop stop-color="#FFFFFF" stop-opacity="0" offset="100%"></stop>
        </linearGradient>
        <linearGradient x1="50%" y1="85.3647394%" x2="50%" y2="17.88847%" id="linearGradient-2">
            <stop stop-color="#F0F6FF" stop-opacity="0" offset="0%"></stop>
            <stop stop-color="#E4EEFF" offset="100%"></stop>
        </linearGradient>
        <linearGradient x1="19.3133267%" y1="49.2659611%" x2="85.3075328%" y2="50.6691726%" id="linearGradient-3">
            <stop stop-color="#9FC3FF" offset="0%"></stop>
            <stop stop-color="#ADCBFF" offset="100%"></stop>
        </linearGradient>
        <linearGradient x1="24.2806596%" y1="15.5957259%" x2="79.5922091%" y2="81.3640029%" id="linearGradient-4">
            <stop stop-color="#ABCBFF" offset="0%"></stop>
            <stop stop-color="#DCE9FF" offset="100%"></stop>
        </linearGradient>
        <linearGradient x1="100%" y1="50%" x2="0%" y2="50%" id="linearGradient-5">
            <stop stop-color="#FFFFFF" stop-opacity="0.28086757" offset="0%"></stop>
            <stop stop-color="#FFFFFF" stop-opacity="0.839406687" offset="100%"></stop>
        </linearGradient>
        <linearGradient x1="48.2407362%" y1="15.5957259%" x2="52.0241771%" y2="81.3640029%" id="linearGradient-6">
            <stop stop-color="#ABCBFF" offset="0%"></stop>
            <stop stop-color="#DCE9FF" offset="100%"></stop>
        </linearGradient>
        <linearGradient x1="100%" y1="50%" x2="0%" y2="50%" id="linearGradient-7">
            <stop stop-color="#FFFFFF" stop-opacity="0.47142701" offset="0%"></stop>
            <stop stop-color="#FFFFFF" offset="100%"></stop>
        </linearGradient>
        <linearGradient x1="50%" y1="0%" x2="116.071986%" y2="137.608949%" id="linearGradient-8">
            <stop stop-color="#FFF7F7" stop-opacity="0.966537369" offset="0%"></stop>
            <stop stop-color="#FFEEEE" offset="100%"></stop>
        </linearGradient>
        <linearGradient x1="19.3133267%" y1="15.5957259%" x2="85.1542523%" y2="81.2112472%" id="linearGradient-9">
            <stop stop-color="#FFB5B5" offset="0%"></stop>
            <stop stop-color="#FF876B" offset="100%"></stop>
        </linearGradient>
    </defs>
    <g id="app设计规范" stroke="none" stroke-width="1" fill="none" fill-rule="evenodd">
        <g id="3-图标/提示" transform="translate(-305.000000, -4380.000000)">
            <g id="操作失败" transform="translate(305.000000, 4380.000000)">
                <path d="M73,48 C113.316787,48 146,72.1766235 146,102 L146,102 L0,102 C0,72.1766235 32.6832133,48 73,48 Z" id="形状结合" fill="url(#linearGradient-1)"></path>
                <polygon id="矩形" fill="url(#linearGradient-2)" opacity="0.683919271" points="36.9232816 71 102 71 92 91 22 91"></polygon>
                <g id="编组-3" transform="translate(25.000000, 0.000000)">
                    <rect id="矩形" fill="url(#linearGradient-3)" x="0" y="0" width="89" height="13" rx="6.5"></rect>
                    <rect id="矩形" fill="url(#linearGradient-4)" x="12" y="0" width="65" height="71"></rect>
                    <path d="M66,56 C67.1045695,56 68,56.8954305 68,58 C68,59.1045695 67.1045695,60 66,60 L37,60 C35.8954305,60 35,59.1045695 35,58 C35,56.8954305 35.8954305,56 37,56 L66,56 Z M66,41 C67.1045695,41 68,41.8954305 68,43 C68,44.1045695 67.1045695,45 66,45 L37,45 C35.8954305,45 35,44.1045695 35,43 C35,41.8954305 35.8954305,41 37,41 L66,41 Z M66,25 C67.1045695,25 68,25.8954305 68,27 C68,28.1045695 67.1045695,29 66,29 L37,29 C35.8954305,29 35,28.1045695 35,27 C35,25.8954305 35.8954305,25 37,25 L66,25 Z M66,10 C67.1045695,10 68,10.8954305 68,12 C68,13.1045695 67.1045695,14 66,14 L37,14 C35.8954305,14 35,13.1045695 35,12 C35,10.8954305 35.8954305,10 37,10 L66,10 Z" id="形状结合" fill="url(#linearGradient-5)"></path>
                    <rect id="矩形" fill="url(#linearGradient-6)" x="12" y="0" width="17" height="71"></rect>
                    <path d="M23,55 C24.6568542,55 26,56.3431458 26,58 C26,59.6568542 24.6568542,61 23,61 C21.3431458,61 20,59.6568542 20,58 C20,56.3431458 21.3431458,55 23,55 Z M23,40 C24.6568542,40 26,41.3431458 26,43 C26,44.6568542 24.6568542,46 23,46 C21.3431458,46 20,44.6568542 20,43 C20,41.3431458 21.3431458,40 23,40 Z M23,24 C24.6568542,24 26,25.3431458 26,27 C26,28.6568542 24.6568542,30 23,30 C21.3431458,30 20,28.6568542 20,27 C20,25.3431458 21.3431458,24 23,24 Z M23,9 C24.6568542,9 26,10.3431458 26,12 C26,13.6568542 24.6568542,15 23,15 C21.3431458,15 20,13.6568542 20,12 C20,10.3431458 21.3431458,9 23,9 Z" id="形状结合" fill="url(#linearGradient-7)"></path>
                    <circle id="椭圆形" fill="url(#linearGradient-8)" cx="74" cy="50" r="14"></circle>
                    <circle id="椭圆形" fill="url(#linearGradient-9)" cx="74" cy="50" r="12"></circle>
                </g>
                <rect id="矩形" fill="#FFFFFF" transform="translate(99.000000, 50.000000) rotate(-45.000000) translate(-99.000000, -50.000000) " x="93" y="49" width="12" height="2" rx="1"></rect>
                <rect id="矩形" fill="#FFFFFF" transform="translate(99.000000, 50.000000) rotate(-135.000000) translate(-99.000000, -50.000000) " x="93" y="49" width="12" height="2" rx="1"></rect>
            </g>
        </g>
    </g>
</svg>