<?xml version="1.0" encoding="UTF-8"?>
<svg width="124px" height="113px" viewBox="0 0 124 113" version="1.1" xmlns="http://www.w3.org/2000/svg" xmlns:xlink="http://www.w3.org/1999/xlink">
    <title>页面丢失</title>
    <defs>
        <polygon id="path-1" points="0 0.0624298588 89.8035851 0.0624298588 89.8035851 52.0430482 0 52.0430482"></polygon>
        <linearGradient x1="-4.5796287%" y1="34.2614707%" x2="83.859155%" y2="66.7519115%" id="linearGradient-3">
            <stop stop-color="#F8F8F8" offset="0%"></stop>
            <stop stop-color="#CCCCCC" offset="100%"></stop>
        </linearGradient>
        <linearGradient x1="-28.8269992%" y1="23.5481659%" x2="106.49225%" y2="66.7515986%" id="linearGradient-4">
            <stop stop-color="#B4B4B4" offset="0%"></stop>
            <stop stop-color="#D5D5D5" offset="100%"></stop>
        </linearGradient>
        <linearGradient x1="456.980197%" y1="12.5421518%" x2="-232.167348%" y2="-11.5187155%" id="linearGradient-5">
            <stop stop-color="#FFFFFF" stop-opacity="0.28086757" offset="0%"></stop>
            <stop stop-color="#FFFFFF" stop-opacity="0.839406687" offset="100%"></stop>
        </linearGradient>
        <linearGradient x1="456.980197%" y1="25.7589152%" x2="-232.167348%" y2="10.1877718%" id="linearGradient-6">
            <stop stop-color="#FFFFFF" stop-opacity="0.28086757" offset="0%"></stop>
            <stop stop-color="#FFFFFF" stop-opacity="0.839406687" offset="100%"></stop>
        </linearGradient>
        <linearGradient x1="456.980197%" y1="25.2395142%" x2="-232.167348%" y2="9.33473615%" id="linearGradient-7">
            <stop stop-color="#FFFFFF" stop-opacity="0.28086757" offset="0%"></stop>
            <stop stop-color="#FFFFFF" stop-opacity="0.839406687" offset="100%"></stop>
        </linearGradient>
        <linearGradient x1="456.980197%" y1="-11.9553981%" x2="-232.167348%" y2="-51.7521479%" id="linearGradient-8">
            <stop stop-color="#FFFFFF" stop-opacity="0.28086757" offset="0%"></stop>
            <stop stop-color="#FFFFFF" stop-opacity="0.839406687" offset="100%"></stop>
        </linearGradient>
        <linearGradient x1="267.859232%" y1="-38.2079023%" x2="-101.046076%" y2="-94.867821%" id="linearGradient-9">
            <stop stop-color="#FFFFFF" stop-opacity="0.28086757" offset="0%"></stop>
            <stop stop-color="#FFFFFF" stop-opacity="0.839406687" offset="100%"></stop>
        </linearGradient>
        <linearGradient x1="-4.5796287%" y1="33.8116444%" x2="83.859155%" y2="67.2307016%" id="linearGradient-10">
            <stop stop-color="#F8F8F8" offset="0%"></stop>
            <stop stop-color="#CCCCCC" offset="100%"></stop>
        </linearGradient>
        <linearGradient x1="49.9970377%" y1="100.009591%" x2="49.9970377%" y2="0.0309946714%" id="linearGradient-11">
            <stop stop-color="#FFFFFF" stop-opacity="0" offset="0%"></stop>
            <stop stop-color="#D9D9D9" offset="100%"></stop>
        </linearGradient>
        <linearGradient x1="-4.5796287%" y1="15.463942%" x2="83.859155%" y2="86.7597873%" id="linearGradient-12">
            <stop stop-color="#F8F8F8" offset="0%"></stop>
            <stop stop-color="#CCCCCC" offset="100%"></stop>
        </linearGradient>
        <linearGradient x1="-4.5796287%" y1="46.2963005%" x2="83.859155%" y2="53.9421756%" id="linearGradient-13">
            <stop stop-color="#B5B5B5" offset="0%"></stop>
            <stop stop-color="#CCCCCC" offset="100%"></stop>
        </linearGradient>
        <linearGradient x1="-4.5796287%" y1="15.463942%" x2="83.859155%" y2="86.7597873%" id="linearGradient-14">
            <stop stop-color="#F8F8F8" offset="0%"></stop>
            <stop stop-color="#CCCCCC" offset="100%"></stop>
        </linearGradient>
        <linearGradient x1="-4.5796287%" y1="46.2963005%" x2="83.859155%" y2="53.9421756%" id="linearGradient-15">
            <stop stop-color="#F8F8F8" offset="0%"></stop>
            <stop stop-color="#CCCCCC" offset="100%"></stop>
        </linearGradient>
    </defs>
    <g id="app设计规范" stroke="none" stroke-width="1" fill="none" fill-rule="evenodd">
        <g id="3-图标/提示" transform="translate(-951.000000, -3873.000000)">
            <g id="编组-11" transform="translate(951.000000, 3873.000000)">
                <g id="编组-10备份">
                    <g id="编组" transform="translate(0.000000, 6.151557)">
                        <mask id="mask-2" fill="white">
                            <use xlink:href="#path-1"></use>
                        </mask>
                        <g id="Clip-2"></g>
                        <path d="M89.1611148,5.90318245 C93.3174879,14.9688956 76.8717057,31.3389728 52.4283612,42.4672458 C27.9840951,53.5964372 4.79872166,55.2677903 0.642348569,46.2020772 C-3.51402453,37.1363641 12.9317577,20.7662869 37.3760238,9.63709549 C61.8193683,-1.49025924 85.0038201,-3.16253068 89.1611148,5.90318245" id="Fill-1" fill="url(#linearGradient-3)" fill-rule="nonzero" mask="url(#mask-2)"></path>
                    </g>
                    <g id="Fill-4" transform="translate(23.091486, 24.891244)" fill="url(#linearGradient-4)">
                        <path d="M49.890463,3.26826822 C52.2156358,8.34018208 43.0135548,17.5014011 29.3362304,23.7276506 C15.658906,29.9548184 2.68567667,30.8896742 0.359582285,25.8177603 C-1.9665121,20.7440098 7.2364905,11.5846274 20.9138149,5.35745961 C34.5911393,-0.868789883 47.5652902,-1.80456396 49.890463,3.26826822" id="Fill-3"></path>
                    </g>
                    <path d="M43.7479926,22.2800226 C44.1322958,23.1175358 43.0540349,24.4307418 41.338955,25.2104005 C39.6247967,25.9909775 37.9235407,25.9441429 37.5392375,25.1066296 C37.1549342,24.2681981 38.2331951,22.9559104 39.9473534,22.1762517 C41.6624333,21.3947564 43.3636893,21.441591 43.7479926,22.2800226" id="Fill-5" fill="url(#linearGradient-5)"></path>
                    <path d="M61.0660602,16.8660323 C61.2439272,17.769665 59.8901107,18.7972717 58.039557,19.1590921 C56.1899249,19.5218308 54.5458075,19.0819527 54.367019,18.17832 C54.189152,17.273769 55.54389,16.2470807 57.3935221,15.8852603 C59.2431542,15.5225216 60.8872716,15.9614813 61.0660602,16.8660323" id="Fill-7" fill="url(#linearGradient-6)"></path>
                    <path d="M78.2478246,18.5161721 C78.0561338,19.4170498 76.4055652,19.8321331 74.5614627,19.4418446 C72.7173601,19.0524744 71.3782891,18.0046646 71.5699799,17.1037869 C71.7616708,16.2019909 73.4122393,15.7878259 75.2563419,16.1781144 C77.1004444,16.5674846 78.4395154,17.6152944 78.2478246,18.5161721" id="Fill-9" fill="url(#linearGradient-7)"></path>
                    <path d="M21.8862995,34.247921 C22.441097,34.9853367 24.1137837,34.6685142 25.6215058,33.5408101 C27.1292278,32.4140242 27.9024422,30.9024598 27.3467232,30.1659624 C26.7919257,29.4285468 25.1201605,29.7453692 23.6124385,30.872155 C22.1037949,31.9998592 21.331502,33.5105053 21.8862995,34.247921" id="Fill-11" fill="url(#linearGradient-8)"></path>
                    <path d="M11.6201501,48.0757048 C12.4210123,48.5367044 13.8347321,47.5917471 14.7775191,45.9653919 C15.7203062,44.3390368 15.8364266,42.6465622 15.0355645,42.1855626 C14.2347023,41.724563 12.8209825,42.668602 11.8781955,44.2958755 C10.9344868,45.9222306 10.819288,47.6137869 11.6201501,48.0757048" id="Fill-13" fill="url(#linearGradient-9)"></path>
                    <path d="M12.7176722,30.8373505 C19.1264125,25.518407 27.6096529,20.2352782 37.3757473,15.7887442 C46.976877,11.4184314 56.3789431,8.51284826 64.514744,7.13719608 C56.3024511,-0.902747031 42.1164088,-1.70536385 31.628709,2.51342526 C17.0104407,8.39438422 11.2025775,16.9743029 12.0679509,29.5627142 C12.1011282,30.0429986 12.4762155,30.4277771 12.7176722,30.8373505" id="Fill-15" fill="url(#linearGradient-10)" fill-rule="nonzero"></path>
                    <path d="M73.1703591,31.1618819 C67.6271388,38.9162804 61.1748059,44.4847409 53.8133602,47.8672633 C42.7711917,52.9410469 29.3232549,53.1809629 25.8045336,52.9260805 L15.5679237,112.999692 L124,99.2723247 L73.1703591,31.1618819 Z" id="Fill-17" fill="url(#linearGradient-11)"></path>
                </g>
                <g id="编组备份-2" transform="translate(74.188034, 72.869159)" fill-rule="nonzero">
                    <g id="编组" transform="translate(0.000000, 0.638010)" fill="url(#linearGradient-12)">
                        <path d="M-0.000141310541,8.0582729 C-0.000141310541,8.0582729 8.24532877,19.4385346 10.6511407,20.9092947 C13.0569527,22.3800548 16.4582974,22.1244847 20.1479157,19.8222417 C23.8368274,17.5207028 25.4089071,15.4641732 25.3771123,14.9417682 C25.3446108,14.4200673 21.4628103,10.3281296 20.0836194,8.82568723 C18.7037219,7.32254081 12.2232205,0.0658990654 12.2232205,0.0658990654 C12.2232205,0.0658990654 8.85437721,7.25847227 -0.000141310541,8.0582729" id="Fill-1"></path>
                    </g>
                    <path d="M19.4576137,20.8438885 C18.3349014,21.4514835 14.3888046,21.387415 13.6992091,19.932848 C13.1594028,21.2642062 11.7378188,21.5254087 10.5705937,21.4916143 C10.5967362,21.5092156 10.6264114,21.5324492 10.6511407,21.5472343 C12.933306,22.941253 16.1092604,22.7807296 19.5777276,20.7981252 C19.5409869,20.8065738 19.5021265,20.8199508 19.4576137,20.8438885" id="Fill-3" fill="url(#linearGradient-13)"></path>
                </g>
                <g id="编组备份-3" transform="translate(42.040337, 71.231802) rotate(59.000000) translate(-42.040337, -71.231802) translate(35.151448, 64.895353)" fill-rule="nonzero">
                    <g id="编组" transform="translate(0.000000, 0.319005)" fill="url(#linearGradient-14)">
                        <path d="M0.757364598,4.28323775 C0.757364598,4.28323775 4.88009964,9.97336859 6.08300562,10.7087487 C7.28591161,11.4441287 8.98658397,11.3163437 10.8313931,10.1652222 C12.6758489,9.01445271 13.4618888,7.98618791 13.4459914,7.72498542 C13.4297407,7.46413495 11.4888404,5.4181661 10.7992449,4.66694492 C10.1092962,3.91537171 6.86904551,0.287050836 6.86904551,0.287050836 C6.86904551,0.287050836 5.18462386,3.88333744 0.757364598,4.28323775" id="Fill-1"></path>
                    </g>
                    <path d="M10.4862421,10.6760455 C9.92488597,10.979843 7.95183753,10.9478088 7.60703981,10.2205253 C7.33713668,10.8862044 6.62634465,11.0168057 6.04273212,10.9999085 C6.05580334,11.0087091 6.07064095,11.0203259 6.08300562,11.0277184 C7.22408824,11.7247278 8.81206545,11.6444661 10.5462991,10.6531639 C10.5279287,10.6573882 10.5084985,10.6640767 10.4862421,10.6760455" id="Fill-3" fill="url(#linearGradient-15)"></path>
                </g>
            </g>
        </g>
    </g>
</svg>