<?xml version="1.0" encoding="UTF-8"?>
<svg width="190px" height="119px" viewBox="0 0 190 119" version="1.1" xmlns="http://www.w3.org/2000/svg" xmlns:xlink="http://www.w3.org/1999/xlink">
    <title>支付成功</title>
    <defs>
        <linearGradient x1="45.7472903%" y1="5.04350929%" x2="45.7472903%" y2="129.393705%" id="linearGradient-1">
            <stop stop-color="#ECF1FF" offset="0%"></stop>
            <stop stop-color="#FFFFFF" stop-opacity="0" offset="100%"></stop>
        </linearGradient>
        <linearGradient x1="49.9970861%" y1="92.9685457%" x2="49.9970861%" y2="-42.1663205%" id="linearGradient-2">
            <stop stop-color="#FFFFFF" stop-opacity="0" offset="0%"></stop>
            <stop stop-color="#A6C1FE" offset="100%"></stop>
        </linearGradient>
        <linearGradient x1="78.7836515%" y1="2.52190568%" x2="43.6440971%" y2="44.4610308%" id="linearGradient-3">
            <stop stop-color="#B4D1FD" offset="0%"></stop>
            <stop stop-color="#92AAFF" stop-opacity="0" offset="100%"></stop>
        </linearGradient>
        <linearGradient x1="50%" y1="0%" x2="50%" y2="100%" id="linearGradient-4">
            <stop stop-color="#B4D1FD" offset="0%"></stop>
            <stop stop-color="#92AAFF" offset="100%"></stop>
        </linearGradient>
        <linearGradient x1="50%" y1="0%" x2="50%" y2="223.872451%" id="linearGradient-5">
            <stop stop-color="#B4D1FD" offset="0%"></stop>
            <stop stop-color="#92AAFF" offset="100%"></stop>
        </linearGradient>
        <radialGradient cx="50%" cy="50%" fx="50%" fy="50%" r="50%" gradientTransform="translate(0.500000,0.500000),scale(0.191247,1.000000),rotate(-90.000000),scale(1.000000,5.347132),translate(-0.500000,-0.500000)" id="radialGradient-6">
            <stop stop-color="#C1D4FF" offset="0%"></stop>
            <stop stop-color="#F6F8FF" stop-opacity="0" offset="100%"></stop>
        </radialGradient>
        <linearGradient x1="19.3133267%" y1="15.9742452%" x2="85.1542523%" y2="80.8678578%" id="linearGradient-7">
            <stop stop-color="#92EAB5" offset="0%"></stop>
            <stop stop-color="#56CB96" offset="100%"></stop>
        </linearGradient>
        <linearGradient x1="100%" y1="50%" x2="5.32907052e-13%" y2="50%" id="linearGradient-8">
            <stop stop-color="#EFF5FF" offset="0%"></stop>
            <stop stop-color="#F2F5FF" stop-opacity="0.308511801" offset="100%"></stop>
        </linearGradient>
    </defs>
    <g id="app设计规范" stroke="none" stroke-width="1" fill="none" fill-rule="evenodd">
        <g id="3-图标/提示" transform="translate(-657.000000, -3693.000000)">
            <g id="支付成功" transform="translate(657.000000, 3693.000000)">
                <path d="M95,65 C147.467051,65 190,89.1766235 190,119 L190,119 L0,119 C0,89.1766235 42.5329488,65 95,65 Z" id="形状结合备份-4" fill="url(#linearGradient-1)"></path>
                <polygon id="路径备份-3" fill="url(#linearGradient-2)" points="111.599751 119 46 117.959673 57.5700938 80 124 80.8190488"></polygon>
                <g id="编组-12备份-2" transform="translate(58.000000, 0.000000)">
                    <rect id="矩形" fill="url(#linearGradient-3)" fill-rule="nonzero" opacity="0.381766183" x="3.5443038" y="3.52475248" width="62.9113924" height="77.5445545" rx="6"></rect>
                    <rect id="矩形" fill="url(#linearGradient-4)" fill-rule="nonzero" x="0" y="7.04950495" width="62.9113924" height="77.5445545" rx="6"></rect>
                    <path d="M26.5822785,2 C26.5822785,0.8954305 27.477709,2.02906125e-16 28.5822785,0 L35.2151899,0 C36.3197594,-2.02906125e-16 37.2151899,0.8954305 37.2151899,2 L37.2151899,3.52475248 L42.9966788,3.52475248 C45.1866792,3.52475248 46.9620253,5.30009859 46.9620253,7.49009901 C46.9620253,9.68009943 45.1866792,11.4554455 42.9966788,11.4554455 L20.8007896,11.4554455 C18.6107892,11.4554455 16.835443,9.68009943 16.835443,7.49009901 C16.835443,5.30009859 18.6107892,3.52475248 20.8007896,3.52475248 L26.5822785,3.52475248 L26.5822785,2 Z" id="形状结合" fill="url(#linearGradient-5)" fill-rule="nonzero"></path>
                    <ellipse id="椭圆形" fill="url(#radialGradient-6)" cx="54.0506329" cy="86.7970297" rx="11.5189873" ry="2.2029703"></ellipse>
                    <ellipse id="椭圆形" fill="url(#linearGradient-7)" cx="54.0506329" cy="70.4950495" rx="15.9493671" ry="15.8613861"></ellipse>
                    <path d="M62.1463051,63.8718845 C62.7267337,63.3034312 63.6677943,63.3034312 64.2482229,63.8718845 C64.801012,64.4132685 64.8273353,65.2750077 64.3271928,65.8469018 L64.2482229,65.9304358 L52.8247569,77.1182145 C52.2719678,77.6595986 51.3920748,77.6853788 50.8081329,77.1955551 L50.7228392,77.1182145 L44.7391189,71.2579495 C44.1586903,70.6894962 44.1586903,69.7678514 44.7391189,69.1993982 C45.291908,68.6580141 46.171801,68.6322339 46.7557429,69.1220576 L46.8410366,69.1993982 L51.7732133,74.0301209 L62.1463051,63.8718845 Z" id="矩形" fill="#FFFFFF" fill-rule="nonzero"></path>
                    <path d="M46.2502774,23.7190546 C47.3013657,24.7643448 47.306066,26.4637953 46.2607758,27.5148836 C46.257286,27.5183927 46.2537865,27.5218922 46.2502774,27.525382 L39.9013671,33.8378911 L44.318461,33.8386838 C45.7784612,33.8386838 46.9620253,35.0222479 46.9620253,36.4822482 C46.9620253,37.9422484 45.7784612,39.1258125 44.318461,39.1258125 L34.5656657,39.1265626 C34.423366,39.2424514 34.2720646,39.3417568 34.1143377,39.4244786 L34.1133671,45.2938911 L44.318461,45.2941293 C45.7784612,45.2941293 46.9620253,46.4776934 46.9620253,47.9376937 C46.9620253,49.397694 45.7784612,50.5812581 44.318461,50.5812581 L34.1133671,50.5808911 L34.1139241,60.7002579 C34.1139241,62.1683566 32.9237949,63.3584858 31.4556962,63.3584858 C29.9875975,63.3584858 28.7974684,62.1683566 28.7974684,60.7002579 L28.7973671,50.5808911 L18.5929314,50.5812581 C17.1329312,50.5812581 15.9493671,49.397694 15.9493671,47.9376937 C15.9493671,46.4776934 17.1329312,45.2941293 18.5929314,45.2941293 L28.7973671,45.2938911 L28.7975462,39.1878636 C28.7713925,39.1681081 28.7455147,39.1478166 28.7199277,39.1269891 L18.5929314,39.1258125 C17.1329312,39.1258125 15.9493671,37.9422484 15.9493671,36.4822482 C15.9493671,35.0222479 17.1329312,33.8386838 18.5929314,33.8386838 L23.3823671,33.8378911 L17.0347921,27.525382 L17.0347921,27.525382 L17.0242938,27.5148836 C15.9790036,26.4637953 15.9837038,24.7643448 17.0347921,23.7190546 C18.0934187,22.6662677 19.8036061,22.6662677 20.8622327,23.7190546 L20.8622327,23.7190546 L31.0373671,33.8378911 L32.2473671,33.8378911 L42.4228368,23.7190546 C43.4814634,22.6662677 45.1916508,22.6662677 46.2502774,23.7190546 Z" id="形状结合" fill="url(#linearGradient-8)" fill-rule="nonzero"></path>
                </g>
            </g>
        </g>
    </g>
</svg>