<?xml version="1.0" encoding="UTF-8"?>
<svg width="146px" height="110px" viewBox="0 0 146 110" version="1.1" xmlns="http://www.w3.org/2000/svg" xmlns:xlink="http://www.w3.org/1999/xlink">
    <title>支付成功</title>
    <defs>
        <linearGradient x1="45.7472903%" y1="5.04350929%" x2="45.7472903%" y2="137.537605%" id="linearGradient-1">
            <stop stop-color="#E5EEFF" offset="0%"></stop>
            <stop stop-color="#FFFFFF" stop-opacity="0" offset="100%"></stop>
        </linearGradient>
        <linearGradient x1="50%" y1="85.3647394%" x2="50%" y2="17.88847%" id="linearGradient-2">
            <stop stop-color="#F0F6FF" stop-opacity="0" offset="0%"></stop>
            <stop stop-color="#E4EEFF" offset="100%"></stop>
        </linearGradient>
        <linearGradient x1="23.4832079%" y1="15.5957259%" x2="80.5097427%" y2="81.3640029%" id="linearGradient-3">
            <stop stop-color="#ABCBFF" offset="0%"></stop>
            <stop stop-color="#DCE9FF" offset="100%"></stop>
        </linearGradient>
        <linearGradient x1="30.9139124%" y1="33.8682735%" x2="61.7494681%" y2="57.3096886%" id="linearGradient-4">
            <stop stop-color="#9FC3FF" offset="0%"></stop>
            <stop stop-color="#82B1FF" offset="100%"></stop>
        </linearGradient>
        <linearGradient x1="100%" y1="50%" x2="0%" y2="50%" id="linearGradient-5">
            <stop stop-color="#FFFFFF" stop-opacity="0.28086757" offset="0%"></stop>
            <stop stop-color="#FFFFFF" stop-opacity="0.839406687" offset="100%"></stop>
        </linearGradient>
        <linearGradient x1="50%" y1="0%" x2="115.77204%" y2="136.984246%" id="linearGradient-6">
            <stop stop-color="#F2FFF7" stop-opacity="0.966537369" offset="0%"></stop>
            <stop stop-color="#EEFFFD" offset="100%"></stop>
        </linearGradient>
        <linearGradient x1="19.3133267%" y1="15.5957259%" x2="85.1542523%" y2="81.2112472%" id="linearGradient-7">
            <stop stop-color="#92EAB5" offset="0%"></stop>
            <stop stop-color="#56CB96" offset="100%"></stop>
        </linearGradient>
    </defs>
    <g id="app设计规范" stroke="none" stroke-width="1" fill="none" fill-rule="evenodd">
        <g id="3-图标/提示" transform="translate(-544.000000, -4372.000000)">
            <g id="支付成功" transform="translate(544.000000, 4372.000000)">
                <path d="M73,60 C113.316787,60 146,82.3857625 146,110 L146,110 L0,110 C0,82.3857625 32.6832133,60 73,60 Z" id="形状结合" fill="url(#linearGradient-1)"></path>
                <polygon id="矩形" fill="url(#linearGradient-2)" opacity="0.683919271" points="38.0549363 77 102 77 92 97 22 97"></polygon>
                <g id="编组-3" transform="translate(37.000000, 0.000000)">
                    <rect id="矩形" fill="url(#linearGradient-3)" x="0" y="8" width="66" height="71" rx="5"></rect>
                    <path d="M27,2 C27,0.8954305 27.8954305,2.02906125e-16 29,0 L37,0 C38.1045695,-2.02906125e-16 39,0.8954305 39,2 L39,4 L46,4 C48.209139,4 50,5.790861 50,8 L50,9 C50,11.209139 48.209139,13 46,13 L20,13 C17.790861,13 16,11.209139 16,9 L16,8 C16,5.790861 17.790861,4 20,4 L27,4 L27,2 Z" id="形状结合" fill="url(#linearGradient-4)"></path>
                    <path d="M31,54 C32.6568542,54 34,55.3431458 34,57 C34,58.6568542 32.6568542,60 31,60 L11,60 C9.34314575,60 8,58.6568542 8,57 C8,55.3431458 9.34314575,54 11,54 L31,54 Z M55,39 C56.6568542,39 58,40.3431458 58,42 C58,43.6568542 56.6568542,45 55,45 L11,45 C9.34314575,45 8,43.6568542 8,42 C8,40.3431458 9.34314575,39 11,39 L55,39 Z M55,23 C56.6568542,23 58,24.3431458 58,26 C58,27.6568542 56.6568542,29 55,29 L11,29 C9.34314575,29 8,27.6568542 8,26 C8,24.3431458 9.34314575,23 11,23 L55,23 Z" id="形状结合" fill="url(#linearGradient-5)"></path>
                    <circle id="椭圆形" fill="url(#linearGradient-6)" cx="62" cy="60" r="14"></circle>
                    <circle id="椭圆形" fill="url(#linearGradient-7)" cx="62" cy="60" r="12"></circle>
                </g>
                <g id="select" transform="translate(93.000000, 54.000000)" fill-rule="nonzero">
                    <rect id="矩形" fill="#000000" opacity="0" x="0.0126705653" y="0" width="12.9746589" height="12.9746589"></rect>
                    <path d="M12.7060429,3.43625731 L5.27222222,10.8726121 C4.91491228,11.2400585 4.32699805,11.2489279 3.9582846,10.8916179 L3.93927875,10.8726121 C3.92280702,10.8624756 3.91773879,10.8460039 3.90760234,10.8244639 C3.88606238,10.8193957 3.87592593,10.8079922 3.85438596,10.802924 L0.285087719,7.2285575 C-0.0785575049,6.84717349 -0.0785575049,6.24785575 0.285087719,5.88421053 C0.655068226,5.51549708 1.25311891,5.51549708 1.62309942,5.88421053 L4.61081871,8.87446394 L11.3807018,2.10204678 C11.7342105,1.73586745 12.3183236,1.72573099 12.68577,2.07923977 L12.708577,2.10204678 C13.0772904,2.46189084 13.0836257,3.05233918 12.7225146,3.42105263 C12.7161793,3.42612086 12.7111111,3.43118908 12.7060429,3.43625731 Z" id="路径" fill="#FFFFFF"></path>
                </g>
            </g>
        </g>
    </g>
</svg>