<?xml version="1.0" encoding="UTF-8"?>
<svg width="200px" height="117px" viewBox="0 0 200 117" version="1.1" xmlns="http://www.w3.org/2000/svg" xmlns:xlink="http://www.w3.org/1999/xlink">
    <title>无搜索结果</title>
    <defs>
        <linearGradient x1="49.9970377%" y1="100.009591%" x2="49.9970377%" y2="0.0309946714%" id="linearGradient-1">
            <stop stop-color="#FFFFFF" stop-opacity="0" offset="0%"></stop>
            <stop stop-color="#D9D9D9" offset="100%"></stop>
        </linearGradient>
        <linearGradient x1="-5.60365854%" y1="94.6065217%" x2="100.418293%" y2="0.108695652%" id="linearGradient-2">
            <stop stop-color="#FFFFFF" stop-opacity="0.6" offset="0%"></stop>
            <stop stop-color="#FDFDFE" stop-opacity="0" offset="4.044725%"></stop>
            <stop stop-color="#ECF0F6" stop-opacity="0.1752" offset="20.85%"></stop>
            <stop stop-color="#DAE2EE" stop-opacity="0.4249" offset="44.82%"></stop>
            <stop stop-color="#CFDAEA" stop-opacity="0.6912" offset="70.37%"></stop>
            <stop stop-color="#CCD7E8" offset="100%"></stop>
            <stop stop-color="#A2A2BC" offset="100%"></stop>
        </linearGradient>
        <linearGradient x1="99.3914053%" y1="49.9236626%" x2="2.69593005%" y2="49.9236626%" id="linearGradient-3">
            <stop stop-color="#EDEDED" stop-opacity="0.6" offset="0%"></stop>
            <stop stop-color="#D7D7D7" offset="100%"></stop>
        </linearGradient>
        <linearGradient x1="-0.0928%" y1="50.2557143%" x2="100.2776%" y2="50.2557143%" id="linearGradient-4">
            <stop stop-color="#FFFFFF" stop-opacity="0.6" offset="0%"></stop>
            <stop stop-color="#CCD7E8" offset="100%"></stop>
            <stop stop-color="#CCD7E8" stop-opacity="0.98" offset="100%"></stop>
        </linearGradient>
        <linearGradient x1="99.3914053%" y1="49.9236626%" x2="2.69593005%" y2="49.9236626%" id="linearGradient-5">
            <stop stop-color="#FFFFFF" stop-opacity="0.95" offset="0%"></stop>
            <stop stop-color="#D7D7D7" offset="100%"></stop>
        </linearGradient>
        <linearGradient x1="49.9970861%" y1="92.9685457%" x2="49.9970861%" y2="-42.9700113%" id="linearGradient-6">
            <stop stop-color="#FFFFFF" stop-opacity="0" offset="0%"></stop>
            <stop stop-color="#B5B5B5" stop-opacity="0.98" offset="100%"></stop>
        </linearGradient>
        <linearGradient x1="50%" y1="84.6330781%" x2="7.25384931%" y2="14.7151865%" id="linearGradient-7">
            <stop stop-color="#F2F2F2" offset="0%"></stop>
            <stop stop-color="#EEEEEE" offset="100%"></stop>
        </linearGradient>
        <linearGradient x1="100%" y1="50%" x2="0.409100507%" y2="50%" id="linearGradient-8">
            <stop stop-color="#FFFFFF" offset="0%"></stop>
            <stop stop-color="#F2F2F2" offset="100%"></stop>
        </linearGradient>
        <filter x="-30.8%" y="-30.0%" width="161.5%" height="160.0%" filterUnits="objectBoundingBox" id="filter-9">
            <feOffset dx="0" dy="2" in="SourceAlpha" result="shadowOffsetOuter1"></feOffset>
            <feGaussianBlur stdDeviation="2" in="shadowOffsetOuter1" result="shadowBlurOuter1"></feGaussianBlur>
            <feColorMatrix values="0 0 0 0 0.899767889   0 0 0 0 0.899767889   0 0 0 0 0.899767889  0 0 0 0.402316434 0" type="matrix" in="shadowBlurOuter1" result="shadowMatrixOuter1"></feColorMatrix>
            <feMerge>
                <feMergeNode in="shadowMatrixOuter1"></feMergeNode>
                <feMergeNode in="SourceGraphic"></feMergeNode>
            </feMerge>
        </filter>
        <linearGradient x1="0.336511685%" y1="49.9634218%" x2="99.9439916%" y2="49.9634218%" id="linearGradient-10">
            <stop stop-color="#D0D0D0" offset="0%"></stop>
            <stop stop-color="#E1E1E1" stop-opacity="0.98" offset="100%"></stop>
        </linearGradient>
        <linearGradient x1="0.336511685%" y1="49.9634218%" x2="99.9439916%" y2="49.9634218%" id="linearGradient-11">
            <stop stop-color="#D0D0D0" offset="0%"></stop>
            <stop stop-color="#E1E1E1" stop-opacity="0.98" offset="100%"></stop>
        </linearGradient>
        <linearGradient x1="19.3133267%" y1="15.5957259%" x2="85.1542523%" y2="81.2112472%" id="linearGradient-12">
            <stop stop-color="#F1F1F1" offset="0%"></stop>
            <stop stop-color="#D9D9D9" offset="100%"></stop>
        </linearGradient>
        <linearGradient x1="0.336511685%" y1="49.9634218%" x2="99.9439916%" y2="49.9634218%" id="linearGradient-13">
            <stop stop-color="#D0D0D0" offset="0%"></stop>
            <stop stop-color="#E1E1E1" stop-opacity="0.98" offset="100%"></stop>
        </linearGradient>
    </defs>
    <g id="app设计规范" stroke="none" stroke-width="1" fill="none" fill-rule="evenodd">
        <g id="3-图标/提示" transform="translate(-81.000000, -4077.000000)">
            <g id="无搜索结果" transform="translate(81.000000, 4077.000000)">
                <path d="M0,117 C0,82.7513321 44.7951274,55 100,55 C155.204873,55 200,82.7513321 200,117" id="路径" fill="url(#linearGradient-1)"></path>
                <rect id="矩形" fill="#DADADA" x="143" y="56" width="1" height="5"></rect>
                <polygon id="路径" fill="url(#linearGradient-2)" points="141.158537 66 140 66 143.353659 61 145 61"></polygon>
                <path d="M150.485206,50.5260103 L148.624472,47.3421592 C150.375751,46.6160177 151.141936,44.3258792 149.828476,42.650168 L145.231368,36.5058939 C144.574639,35.6680384 143.370634,35.9473235 142.768632,36.7851791 L138.171524,42.7060251 C136.858064,44.3817362 137.624249,46.7277318 139.375528,47.3980162 L137.514794,50.5818674 C136.091879,52.98372 137.788431,56 140.524805,56 L147.475195,56 C150.211569,55.944143 151.908121,52.9278629 150.485206,50.5260103 Z" id="路径" fill="url(#linearGradient-3)"></path>
                <g id="分组" transform="translate(21.000000, 49.000000)">
                    <rect id="矩形" fill="#DADADA" x="10" y="30.441989" width="2.26519337" height="8.06629834"></rect>
                    <polygon id="路径" fill="url(#linearGradient-4)" points="6.90607735 46.2430939 5.35911602 46.2430939 10 38.5082873 12.2651934 38.5082873"></polygon>
                    <path d="M21.1049724,22.320442 L18.2320442,17.5690608 C20.9392265,16.519337 22.0994475,12.9834254 20.1104972,10.441989 L13.038674,1.16022099 C12.0441989,-0.0552486188 10.2209945,0.331491713 9.22651934,1.54696133 L2.20994475,10.3867403 C0.220994475,12.9281768 1.38121547,16.4088398 4.08839779,17.5138122 L1.21546961,22.2651934 C-0.939226519,25.8563536 1.65745856,30.441989 5.80110497,30.441989 L16.4640884,30.441989 C20.6629834,30.441989 23.2596685,25.8563536 21.1049724,22.320442 Z" id="路径" fill="url(#linearGradient-5)"></path>
                </g>
                <g id="编组-14" transform="translate(43.000000, 0.000000)">
                    <polygon id="矩形备份-20" fill="url(#linearGradient-6)" points="15.9458904 73 80 73 69.7632705 96 -4.88073179e-13 96"></polygon>
                    <rect id="矩形备份-21" fill="url(#linearGradient-7)" x="15" y="5" width="66" height="71" rx="5"></rect>
                    <path d="M66.5,49 C67.8807119,49 69,50.1192881 69,51.5 C69,52.8807119 67.8807119,54 66.5,54 L29.5,54 C28.1192881,54 27,52.8807119 27,51.5 C27,50.1192881 28.1192881,49 29.5,49 L66.5,49 Z M66.5,36 C67.8807119,36 69,37.1192881 69,38.5 C69,39.8807119 67.8807119,41 66.5,41 L29.5,41 C28.1192881,41 27,39.8807119 27,38.5 C27,37.1192881 28.1192881,36 29.5,36 L66.5,36 Z M66.5,23 C67.8807119,23 69,24.1192881 69,25.5 C69,26.8807119 67.8807119,28 66.5,28 L29.5,28 C28.1192881,28 27,26.8807119 27,25.5 C27,24.1192881 28.1192881,23 29.5,23 L66.5,23 Z" id="形状结合备份-5" fill="url(#linearGradient-8)"></path>
                    <g id="编组-13备份" filter="url(#filter-9)" transform="translate(47.000000, 32.000000)">
                        <path d="M29.3756089,21.3238848 L30.8928503,21.3238848 C31.9974198,21.3238848 32.8928503,22.2193153 32.8928503,23.3238848 L32.8928503,38.3238848 C32.8928503,39.4284543 31.9974198,40.3238848 30.8928503,40.3238848 L29.3756089,40.3238848 C28.2710394,40.3238848 27.3756089,39.4284543 27.3756089,38.3238848 L27.3756089,23.3238848 C27.3756089,22.2193153 28.2710394,21.3238848 29.3756089,21.3238848 Z" id="矩形" fill="url(#linearGradient-10)" fill-rule="nonzero" transform="translate(30.134230, 30.823885) rotate(-45.000000) translate(-30.134230, -30.823885) "></path>
                        <path d="M15.1724138,-1.84741111e-13 C23.5519065,-1.84741111e-13 30.3448276,6.79292104 30.3448276,15.1724138 C30.3448276,23.5519065 23.5519065,30.3448276 15.1724138,30.3448276 C6.79292104,30.3448276 -1.84741111e-13,23.5519065 -1.84741111e-13,15.1724138 C-1.84741111e-13,6.79292104 6.79292104,-1.84741111e-13 15.1724138,-1.84741111e-13 Z M15.1724138,4.13793103 C9.07823724,4.13793103 4.13793103,9.07823724 4.13793103,15.1724138 C4.13793103,21.2665903 9.07823724,26.2068966 15.1724138,26.2068966 C21.2665903,26.2068966 26.2068966,21.2665903 26.2068966,15.1724138 C26.2068966,9.07823724 21.2665903,4.13793103 15.1724138,4.13793103 Z" id="形状结合" fill="url(#linearGradient-11)" fill-rule="nonzero"></path>
                        <circle id="椭圆形" fill="url(#linearGradient-12)" opacity="0.562523251" cx="15.1724138" cy="15.1724138" r="11.0344828"></circle>
                    </g>
                    <rect id="矩形备份-22" fill="url(#linearGradient-13)" fill-rule="nonzero" x="35" y="0" width="26" height="10" rx="3"></rect>
                </g>
            </g>
        </g>
    </g>
</svg>