<?xml version="1.0" encoding="UTF-8"?>
<svg width="146px" height="107px" viewBox="0 0 146 107" version="1.1" xmlns="http://www.w3.org/2000/svg" xmlns:xlink="http://www.w3.org/1999/xlink">
    <title>无搜索结果</title>
    <defs>
        <linearGradient x1="45.7472903%" y1="5.04350929%" x2="45.7472903%" y2="137.537605%" id="linearGradient-1">
            <stop stop-color="#E5EEFF" offset="0%"></stop>
            <stop stop-color="#FFFFFF" stop-opacity="0" offset="100%"></stop>
        </linearGradient>
        <linearGradient x1="50%" y1="85.3647394%" x2="50%" y2="17.88847%" id="linearGradient-2">
            <stop stop-color="#F0F6FF" stop-opacity="0" offset="0%"></stop>
            <stop stop-color="#E4EEFF" offset="100%"></stop>
        </linearGradient>
        <linearGradient x1="50%" y1="84.6330781%" x2="7.25384931%" y2="14.7151865%" id="linearGradient-3">
            <stop stop-color="#DDE9FF" offset="0%"></stop>
            <stop stop-color="#F2F6FF" offset="100%"></stop>
        </linearGradient>
        <linearGradient x1="100%" y1="50%" x2="0.409100507%" y2="50%" id="linearGradient-4">
            <stop stop-color="#FFFFFF" offset="0%"></stop>
            <stop stop-color="#EFF5FF" offset="100%"></stop>
        </linearGradient>
        <filter x="-30.8%" y="-30.0%" width="161.5%" height="160.0%" filterUnits="objectBoundingBox" id="filter-5">
            <feOffset dx="0" dy="2" in="SourceAlpha" result="shadowOffsetOuter1"></feOffset>
            <feGaussianBlur stdDeviation="2" in="shadowOffsetOuter1" result="shadowBlurOuter1"></feGaussianBlur>
            <feColorMatrix values="0 0 0 0 0.674509804   0 0 0 0 0.796078431   0 0 0 0 1  0 0 0 0.402316434 0" type="matrix" in="shadowBlurOuter1" result="shadowMatrixOuter1"></feColorMatrix>
            <feMerge>
                <feMergeNode in="shadowMatrixOuter1"></feMergeNode>
                <feMergeNode in="SourceGraphic"></feMergeNode>
            </feMerge>
        </filter>
        <linearGradient x1="48.3906382%" y1="-60.3448274%" x2="50.9738473%" y2="98.9589097%" id="linearGradient-6">
            <stop stop-color="#D5E5FF" offset="0%"></stop>
            <stop stop-color="#82B1FF" offset="100%"></stop>
        </linearGradient>
        <linearGradient x1="30.9139124%" y1="-60.3448274%" x2="61.5492583%" y2="98.9589097%" id="linearGradient-7">
            <stop stop-color="#D5E5FF" offset="0%"></stop>
            <stop stop-color="#82B1FF" offset="100%"></stop>
        </linearGradient>
        <linearGradient x1="19.3133267%" y1="15.5957259%" x2="85.1542523%" y2="81.2112472%" id="linearGradient-8">
            <stop stop-color="#CBDFFF" offset="0%"></stop>
            <stop stop-color="#B2CFFF" offset="100%"></stop>
        </linearGradient>
        <linearGradient x1="30.9139124%" y1="33.6768007%" x2="61.5492583%" y2="57.2424423%" id="linearGradient-9">
            <stop stop-color="#D5E5FF" offset="0%"></stop>
            <stop stop-color="#82B1FF" offset="100%"></stop>
        </linearGradient>
    </defs>
    <g id="app设计规范" stroke="none" stroke-width="1" fill="none" fill-rule="evenodd">
        <g id="3-图标/提示" transform="translate(-1014.000000, -4565.000000)">
            <g id="无搜索结果" transform="translate(1014.000000, 4565.000000)">
                <path d="M73,57 C113.316787,57 146,79.3857625 146,107 L146,107 L0,107 C0,79.3857625 32.6832133,57 73,57 Z" id="形状结合" fill="url(#linearGradient-1)"></path>
                <polygon id="矩形" fill="url(#linearGradient-2)" opacity="0.683919271" points="37.9458904 73 102 73 91.7632705 96 22 96"></polygon>
                <rect id="矩形" fill="url(#linearGradient-3)" x="37" y="5" width="66" height="71" rx="5"></rect>
                <path d="M88.5,49 C89.8807119,49 91,50.1192881 91,51.5 C91,52.8807119 89.8807119,54 88.5,54 L51.5,54 C50.1192881,54 49,52.8807119 49,51.5 C49,50.1192881 50.1192881,49 51.5,49 L88.5,49 Z M88.5,36 C89.8807119,36 91,37.1192881 91,38.5 C91,39.8807119 89.8807119,41 88.5,41 L51.5,41 C50.1192881,41 49,39.8807119 49,38.5 C49,37.1192881 50.1192881,36 51.5,36 L88.5,36 Z M88.5,23 C89.8807119,23 91,24.1192881 91,25.5 C91,26.8807119 89.8807119,28 88.5,28 L51.5,28 C50.1192881,28 49,26.8807119 49,25.5 C49,24.1192881 50.1192881,23 51.5,23 L88.5,23 Z" id="形状结合" fill="url(#linearGradient-4)"></path>
                <g id="编组-13" filter="url(#filter-5)" transform="translate(69.000000, 32.000000)">
                    <path d="M29.3756089,21.3238848 L30.8928503,21.3238848 C31.9974198,21.3238848 32.8928503,22.2193153 32.8928503,23.3238848 L32.8928503,38.3238848 C32.8928503,39.4284543 31.9974198,40.3238848 30.8928503,40.3238848 L29.3756089,40.3238848 C28.2710394,40.3238848 27.3756089,39.4284543 27.3756089,38.3238848 L27.3756089,23.3238848 C27.3756089,22.2193153 28.2710394,21.3238848 29.3756089,21.3238848 Z" id="矩形" fill="url(#linearGradient-6)" transform="translate(30.134230, 30.823885) rotate(-45.000000) translate(-30.134230, -30.823885) "></path>
                    <path d="M15.1724138,-1.84741111e-13 C23.5519065,-1.84741111e-13 30.3448276,6.79292104 30.3448276,15.1724138 C30.3448276,23.5519065 23.5519065,30.3448276 15.1724138,30.3448276 C6.79292104,30.3448276 -1.84741111e-13,23.5519065 -1.84741111e-13,15.1724138 C-1.84741111e-13,6.79292104 6.79292104,-1.84741111e-13 15.1724138,-1.84741111e-13 Z M15.1724138,4.13793103 C9.07823724,4.13793103 4.13793103,9.07823724 4.13793103,15.1724138 C4.13793103,21.2665903 9.07823724,26.2068966 15.1724138,26.2068966 C21.2665903,26.2068966 26.2068966,21.2665903 26.2068966,15.1724138 C26.2068966,9.07823724 21.2665903,4.13793103 15.1724138,4.13793103 Z" id="形状结合" fill="url(#linearGradient-7)"></path>
                    <circle id="椭圆形" fill="url(#linearGradient-8)" opacity="0.562523251" cx="15.1724138" cy="15.1724138" r="11.0344828"></circle>
                </g>
                <rect id="矩形" fill="url(#linearGradient-9)" x="57" y="0" width="26" height="10" rx="3"></rect>
            </g>
        </g>
    </g>
</svg>