<?xml version="1.0" encoding="UTF-8"?>
<svg width="60px" height="60px" viewBox="0 0 60 60" version="1.1" xmlns="http://www.w3.org/2000/svg" xmlns:xlink="http://www.w3.org/1999/xlink">
    <title>认证失败</title>
    <defs>
        <linearGradient x1="27.8366901%" y1="0.1935536%" x2="75.9084858%" y2="94.0174204%" id="linearGradient-1">
            <stop stop-color="#DFDFDF" offset="0%"></stop>
            <stop stop-color="#C5C5C5" offset="100%"></stop>
        </linearGradient>
        <linearGradient x1="27.8366901%" y1="0.1935536%" x2="75.9084858%" y2="94.0174204%" id="linearGradient-2">
            <stop stop-color="#E5E5E5" offset="0%"></stop>
            <stop stop-color="#D7D7D7" offset="100%"></stop>
        </linearGradient>
        <linearGradient x1="74.4976327%" y1="-2.13562804%" x2="27.8366901%" y2="92.3029898%" id="linearGradient-3">
            <stop stop-color="#FBA39D" offset="0%"></stop>
            <stop stop-color="#FF6458" offset="100%"></stop>
        </linearGradient>
    </defs>
    <g id="app设计规范" stroke="none" stroke-width="1" fill="none" fill-rule="evenodd">
        <g id="3-图标/提示" transform="translate(-170.000000, -2132.000000)">
            <g id="认证失败" transform="translate(170.000000, 2132.000000)">
                <path d="M60,30 C60,46.5687342 46.5687342,60 30,60 C13.4316456,60 0,46.5687342 0,30 C0,13.4312658 13.4316456,0 30,0 C46.5687342,0 60,13.4312658 60,30" id="Fill-1" fill-opacity="0.12" fill="url(#linearGradient-1)"></path>
                <path d="M57.0833333,30 C57.0833333,44.9574577 44.9578502,57.0833333 30,57.0833333 C15.0425423,57.0833333 2.91666667,44.9574577 2.91666667,30 C2.91666667,15.0425423 15.0425423,2.91666667 30,2.91666667 C44.9578502,2.91666667 57.0833333,15.0425423 57.0833333,30" id="Fill-3" fill-opacity="0.2" fill="url(#linearGradient-1)"></path>
                <path d="M54.58325,30 C54.58325,43.5770833 43.577,54.5833333 29.9999167,54.5833333 C16.42325,54.5833333 5.41658333,43.5770833 5.41658333,30 C5.41658333,16.4229167 16.42325,5.41666667 29.9999167,5.41666667 C43.577,5.41666667 54.58325,16.4229167 54.58325,30" id="Fill-5" fill="url(#linearGradient-2)"></path>
                <path d="M38.7067917,43.9075 L19.883875,43.9075 C18.4084583,43.9075 17.2122083,42.71125 17.2122083,41.2354167 L17.2122083,17.8295833 C17.2122083,16.35375 18.4084583,15.1575 19.883875,15.1575 L38.7067917,15.1575 C40.182625,15.1575 41.378875,16.35375 41.378875,17.8295833 L41.378875,41.2354167 C41.378875,42.71125 40.182625,43.9075 38.7067917,43.9075" id="Fill-7" fill="#FFFFFF"></path>
                <path d="M37.143875,22.393 L30.6134583,22.393 C30.1597083,22.393 29.7922083,22.0250833 29.7922083,21.57175 C29.7922083,21.118 30.1597083,20.7505 30.6134583,20.7505 L37.143875,20.7505 C37.597625,20.7505 37.965125,21.118 37.965125,21.57175 C37.965125,22.0250833 37.597625,22.393 37.143875,22.393" id="Fill-9" fill="#EFEFEF"></path>
                <path d="M37.143875,26.2813333 L30.6134583,26.2813333 C30.1597083,26.2813333 29.7922083,25.9138333 29.7922083,25.4600833 C29.7922083,25.0063333 30.1597083,24.6388333 30.6134583,24.6388333 L37.143875,24.6388333 C37.597625,24.6388333 37.965125,25.0063333 37.965125,25.4600833 C37.965125,25.9138333 37.597625,26.2813333 37.143875,26.2813333" id="Fill-11" fill="#EFEFEF"></path>
                <path d="M33.808125,33.346375 L21.299375,33.346375 C20.845625,33.346375 20.4777083,32.9784583 20.4777083,32.5247083 C20.4777083,32.0709583 20.845625,31.703875 21.299375,31.703875 L33.808125,31.703875 C34.2614583,31.703875 34.629375,32.0709583 34.629375,32.5247083 C34.629375,32.9784583 34.2614583,33.346375 33.808125,33.346375" id="Fill-13" fill="#EFEFEF"></path>
                <path d="M37.7086667,38.0383333 L21.2990833,38.0383333 C20.8453333,38.0383333 20.4778333,37.6704167 20.4778333,37.2166667 C20.4778333,36.7629167 20.8453333,36.3958333 21.2990833,36.3958333 L37.7086667,36.3958333 C38.1624167,36.3958333 38.5299167,36.7629167 38.5299167,37.2166667 C38.5299167,37.6704167 38.1624167,38.0383333 37.7086667,38.0383333" id="Fill-15" fill="#EFEFEF"></path>
                <rect id="矩形" fill="#EFEFEF" x="20.4166667" y="19.5833333" width="6.66666667" height="7.5" rx="2"></rect>
                <g id="编组-2" transform="translate(22.083623, 21.458333)" fill="#E1E1E1">
                    <circle id="椭圆形" cx="1.66637685" cy="1.04166667" r="1.04166667"></circle>
                    <path d="M1.66637685,2.08333333 C2.58685143,2.08333333 3.33304351,2.65820544 3.33304351,3.78787879 L3.331,3.74933333 L5.06633611e-06,3.74914446 C0.0159881889,2.70385102 0.679773831,2.14468812 1.52257047,2.08810774 Z" id="形状结合"></path>
                </g>
                <g id="编组-3" transform="translate(34.394750, 29.436917)">
                    <circle id="椭圆形" fill="url(#linearGradient-3)" cx="5.18858333" cy="5.14641667" r="5"></circle>
                    <path d="M5.18858333,2.22975 C5.64882062,2.22975 6.02191667,2.60284604 6.02191667,3.06308333 L6.02191667,7.22975 C6.02191667,7.68998729 5.64882062,8.06308333 5.18858333,8.06308333 C4.72834604,8.06308333 4.35525,7.68998729 4.35525,7.22975 L4.35525,3.06308333 C4.35525,2.60284604 4.72834604,2.22975 5.18858333,2.22975 Z" id="矩形" fill="#FFFFFF" transform="translate(5.188583, 5.146417) scale(-1, 1) rotate(-315.000000) translate(-5.188583, -5.146417) "></path>
                    <path d="M5.18858333,2.22975 C5.64882062,2.22975 6.02191667,2.60284604 6.02191667,3.06308333 L6.02191667,7.22975 C6.02191667,7.68998729 5.64882062,8.06308333 5.18858333,8.06308333 C4.72834604,8.06308333 4.35525,7.68998729 4.35525,7.22975 L4.35525,3.06308333 C4.35525,2.60284604 4.72834604,2.22975 5.18858333,2.22975 Z" id="矩形" fill="#FFFFFF" transform="translate(5.188583, 5.146417) rotate(-315.000000) translate(-5.188583, -5.146417) "></path>
                </g>
            </g>
        </g>
    </g>
</svg>