<?xml version="1.0" encoding="UTF-8"?>
<svg width="51px" height="53px" viewBox="0 0 51 53" version="1.1" xmlns="http://www.w3.org/2000/svg" xmlns:xlink="http://www.w3.org/1999/xlink">
    <title>失败</title>
    <defs>
        <linearGradient x1="-1.11022302e-14%" y1="50%" x2="100%" y2="50%" id="linearGradient-1">
            <stop stop-color="#FD97A2" offset="0%"></stop>
            <stop stop-color="#FA5E69" offset="100%"></stop>
        </linearGradient>
        <linearGradient x1="-1.11022302e-14%" y1="50%" x2="100%" y2="50%" id="linearGradient-2">
            <stop stop-color="#FD97A2" offset="0%"></stop>
            <stop stop-color="#FA5E69" offset="100%"></stop>
        </linearGradient>
    </defs>
    <g id="app设计规范" stroke="none" stroke-width="1" fill="none" fill-rule="evenodd">
        <g id="3-图标/提示" transform="translate(-296.000000, -1791.000000)">
            <g id="失败" transform="translate(296.000000, 1791.000000)">
                <g transform="translate(0.000000, 1.000000)" fill="url(#linearGradient-1)" id="形状">
                    <path d="M21.4285714,42.8571429 C9.59357143,42.8571429 0,33.2635714 0,21.4285714 C0,9.59357143 9.59357143,0 21.4285714,0 C33.2635714,0 42.8571429,9.59357143 42.8571429,21.4285714 C42.8571429,33.2635714 33.2635714,42.8571429 21.4285714,42.8571429 Z M22.1935714,29.3678571 C20.925,29.3678571 19.8985714,30.3321429 19.8985714,31.5214286 C19.8985714,32.7107143 20.9271429,33.6728571 22.1935714,33.6728571 C23.4621429,33.6728571 24.4907143,32.7085714 24.4907143,31.5214286 C24.4907143,30.3321429 23.4621429,29.3678571 22.1935714,29.3678571 Z M22.1935714,26.4985714 C23.4621429,26.4985714 24.4907143,25.5342857 24.4907143,24.3471429 L24.4907143,12.8657143 C24.4907143,11.6785714 23.4621429,10.7142857 22.1935714,10.7142857 C20.925,10.7142857 19.8985714,11.6785714 19.8985714,12.8657143 L19.8985714,24.3471429 C19.8985714,25.5342857 20.9271429,26.4985714 22.1935714,26.4985714 Z"></path>
                </g>
                <g id="编组" transform="translate(44.436011, 7.215273) rotate(-304.000000) translate(-44.436011, -7.215273) translate(38.436011, 3.715273)" fill="url(#linearGradient-2)">
                    <rect id="矩形" x="5.13283497" y="0.947086456" width="1.58730159" height="5.07936508" rx="0.793650794"></rect>
                    <path d="M9.62968053,1.63857954 C10.0680018,1.63857954 10.4233313,1.99390911 10.4233313,2.43223034 L10.4233313,5.92429383 C10.4233313,6.36261506 10.0680018,6.71794462 9.62968053,6.71794462 C9.1913593,6.71794462 8.83602973,6.36261506 8.83602973,5.92429383 L8.83602973,2.43223034 C8.83602973,1.99390911 9.1913593,1.63857954 9.62968053,1.63857954 Z" id="矩形复制" transform="translate(9.629681, 4.178262) rotate(-330.000000) translate(-9.629681, -4.178262) "></path>
                    <path d="M2.32809322,1.63857954 C2.76641445,1.63857954 3.12174402,1.99390911 3.12174402,2.43223034 L3.12174402,5.92429383 C3.12174402,6.36261506 2.76641445,6.71794462 2.32809322,6.71794462 C1.88977199,6.71794462 1.53444243,6.36261506 1.53444243,5.92429383 L1.53444243,2.43223034 C1.53444243,1.99390911 1.88977199,1.63857954 2.32809322,1.63857954 Z" id="矩形复制" transform="translate(2.328093, 4.178262) scale(-1, 1) rotate(-330.000000) translate(-2.328093, -4.178262) "></path>
                </g>
                <ellipse id="椭圆形" fill="#E9E9E9" cx="21.4285714" cy="50.6428571" rx="12.8571429" ry="1.78571429"></ellipse>
            </g>
        </g>
    </g>
</svg>