<?xml version="1.0" encoding="UTF-8"?>
<svg width="49px" height="52px" viewBox="0 0 49 52" version="1.1" xmlns="http://www.w3.org/2000/svg" xmlns:xlink="http://www.w3.org/1999/xlink">
    <title>认证中</title>
    <defs>
        <linearGradient x1="6.70683037%" y1="5.47419099%" x2="100%" y2="100%" id="linearGradient-1">
            <stop stop-color="#FFAB00" offset="0%"></stop>
            <stop stop-color="#FF7800" offset="100%"></stop>
        </linearGradient>
        <linearGradient x1="45.7721514%" y1="5.47419099%" x2="54.8828125%" y2="100%" id="linearGradient-2">
            <stop stop-color="#FFAB00" offset="0%"></stop>
            <stop stop-color="#FF7800" offset="100%"></stop>
        </linearGradient>
    </defs>
    <g id="app设计规范" stroke="none" stroke-width="1" fill="none" fill-rule="evenodd">
        <g id="3-图标/提示" transform="translate(-70.000000, -1792.000000)">
            <g id="认证中" transform="translate(70.000000, 1792.000000)">
                <path d="M21.4285714,42.8571429 C9.59357143,42.8571429 0,33.2635714 0,21.4285714 C0,9.59357143 9.59357143,0 21.4285714,0 C33.2635714,0 42.8571429,9.59357143 42.8571429,21.4285714 C42.8571429,33.2635714 33.2635714,42.8571429 21.4285714,42.8571429 Z" id="形状" fill="url(#linearGradient-1)" fill-rule="nonzero"></path>
                <ellipse id="椭圆形" fill="#E9E9E9" cx="21.8571429" cy="49.7857143" rx="12.8571429" ry="1.78571429"></ellipse>
                <rect id="矩形" fill="url(#linearGradient-2)" fill-rule="nonzero" transform="translate(44.405872, 6.146928) rotate(-304.000000) translate(-44.405872, -6.146928) " x="43.6122207" y="3.60724573" width="1.58730159" height="5.07936508" rx="0.793650794"></rect>
                <path d="M45.903398,7.06401136 C46.3417193,7.06401136 46.6970488,7.41934092 46.6970488,7.85766215 L46.6970488,11.3497256 C46.6970488,11.7880469 46.3417193,12.1433764 45.903398,12.1433764 C45.4650768,12.1433764 45.1097472,11.7880469 45.1097472,11.3497256 L45.1097472,7.85766215 C45.1097472,7.41934092 45.4650768,7.06401136 45.903398,7.06401136 Z" id="矩形复制" fill="url(#linearGradient-2)" fill-rule="nonzero" transform="translate(45.903398, 9.603694) rotate(-634.000000) translate(-45.903398, -9.603694) "></path>
                <path d="M41.8204022,1.01072115 C42.2587234,1.01072115 42.614053,1.36605071 42.614053,1.80437194 L42.614053,5.29643543 C42.614053,5.73475666 42.2587234,6.09008623 41.8204022,6.09008623 C41.382081,6.09008623 41.0267514,5.73475666 41.0267514,5.29643543 L41.0267514,1.80437194 C41.0267514,1.36605071 41.382081,1.01072115 41.8204022,1.01072115 Z" id="矩形复制" fill="url(#linearGradient-2)" fill-rule="nonzero" transform="translate(41.820402, 3.550404) scale(-1, 1) rotate(-26.000000) translate(-41.820402, -3.550404) "></path>
                <polyline id="矩形" stroke="#FFFFFF" stroke-width="4.6" stroke-linecap="round" stroke-linejoin="round" transform="translate(25.500000, 18.500000) rotate(-270.000000) translate(-25.500000, -18.500000) " points="31 13 31 24 20 24"></polyline>
            </g>
        </g>
    </g>
</svg>