<?xml version="1.0" encoding="UTF-8"?>
<svg width="16px" height="16px" viewBox="0 0 16 16" version="1.1" xmlns="http://www.w3.org/2000/svg" xmlns:xlink="http://www.w3.org/1999/xlink">
    <title>小图标/关闭</title>
    <g id="页面-1" stroke="none" stroke-width="1" fill="none" fill-rule="evenodd">
        <g id="09-标识元素" transform="translate(-345.000000, -1441.000000)" fill="#CCCCCC">
            <g id="小图标/关闭" transform="translate(345.000000, 1441.000000)">
                <path d="M9.23802581,7.99965697 L15.7530123,1.48467047 C16.0823292,1.15535354 16.0823292,0.614724934 15.7530123,0.285407991 L15.7173363,0.24973199 C15.3880194,-0.0795849375 14.8473908,-0.0795849375 14.5180738,0.24973199 L8.00308734,6.77295142 L1.48810085,0.246987695 C1.15878392,-0.0823292318 0.61815531,-0.0823292318 0.288838383,0.246987695 L0.253162382,0.282663697 C-0.0843874605,0.611980624 -0.0843874605,1.15260923 0.253162382,1.48192616 L6.76814888,7.99965697 L0.253162382,14.5146435 C-0.0761545457,14.8439604 -0.0761545457,15.384589 0.253162382,15.7139059 L0.288838383,15.7495819 C0.61815531,16.0788989 1.15878392,16.0788989 1.48810085,15.7495819 L8.00308734,9.23459543 L14.5180738,15.7495819 C14.8473908,16.0788989 15.3880194,16.0788989 15.7173363,15.7495819 L15.7530123,15.7139059 C16.0823292,15.384589 16.0823292,14.8439604 15.7530123,14.5146435 L9.23802581,7.99965697 Z" id="路径复制"></path>
            </g>
        </g>
    </g>
</svg>