<?xml version="1.0" encoding="UTF-8"?>
<svg width="17px" height="17px" viewBox="0 0 17 17" version="1.1" xmlns="http://www.w3.org/2000/svg" xmlns:xlink="http://www.w3.org/1999/xlink">
    <title>形状</title>
    <g id="页面-1" stroke="none" stroke-width="1" fill="none" fill-rule="evenodd">
        <g id="07-选择/对话框" transform="translate(-279.000000, -2460.000000)" fill="#CCCCCC" fill-rule="nonzero">
            <path d="M287.5,2460 C292.193973,2460 296,2463.80603 296,2468.5 C296,2473.19397 292.193973,2477 287.5,2477 C282.806027,2477 279,2473.19397 279,2468.5 C279,2463.80603 282.806027,2460 287.5,2460 Z M290.63817,2465.34665 L289.385938,2465.35234 L287.5,2467.60067 L285.61596,2465.35424 L284.36183,2465.34855 C284.278348,2465.34855 284.210045,2465.41496 284.210045,2465.50033 C284.210045,2465.53638 284.223326,2465.57054 284.246094,2465.599 L286.714509,2468.53984 L284.246094,2471.47879 C284.223326,2471.50725 284.210045,2471.54141 284.210045,2471.57746 C284.210045,2471.66094 284.278348,2471.72924 284.36183,2471.72924 L285.61596,2471.72355 L287.5,2469.47522 L289.38404,2471.72165 L290.636272,2471.72734 C290.719754,2471.72734 290.788058,2471.66094 290.788058,2471.57556 C290.788058,2471.53951 290.774777,2471.50536 290.752009,2471.4769 L288.287388,2468.53795 L290.755804,2465.5971 C290.778571,2465.57054 290.789955,2465.53449 290.789955,2465.49844 C290.789955,2465.41496 290.721652,2465.34665 290.63817,2465.34665 Z" id="形状"></path>
        </g>
    </g>
</svg>