<?xml version="1.0" encoding="UTF-8"?>
<svg width="18px" height="18px" viewBox="0 0 18 18" version="1.1" xmlns="http://www.w3.org/2000/svg" xmlns:xlink="http://www.w3.org/1999/xlink">
    <title>小图标/加载失败</title>
    <g id="页面-1" stroke="none" stroke-width="1" fill="none" fill-rule="evenodd">
        <g id="09-标识元素" transform="translate(-465.000000, -1440.000000)" fill-rule="nonzero">
            <g id="小图标/加载失败" transform="translate(465.000000, 1440.000000)">
                <rect id="矩形" fill="#000000" opacity="0" x="0" y="0" width="18" height="18"></rect>
                <path d="M12.375,5.765625 C12.375,6.46461039 12.9416396,7.03125 13.640625,7.03125 C14.3396104,7.03125 14.90625,6.46461039 14.90625,5.765625 C14.90625,5.06663961 14.3396104,4.5 13.640625,4.5 C12.9416396,4.5 12.375,5.06663961 12.375,5.765625 L12.375,5.765625 Z M17.5764375,2.04975 C17.4783735,1.93712561 17.3395496,1.8681184 17.1905625,1.8579375 L9.1715625,1.297125 C8.98727639,1.28284558 8.80798738,1.36131089 8.6934375,1.506375 L7.072875,3.5251875 C6.90317334,3.73638719 6.9081385,4.03855237 7.0846875,4.2440625 L9.653625,7.2315 L7.061625,10.6531875 L7.702875,7.6055625 C7.74626772,7.39930488 7.67071108,7.18609622 7.507125,7.0531875 L4.1416875,4.3155 L5.5411875,2.106 C5.65452366,1.92676036 5.65742099,1.69901339 5.54868123,1.51694857 C5.43994147,1.33488374 5.23804876,1.22944937 5.0265,1.24425 L0.804375,1.539 C0.655463749,1.54937704 0.516783621,1.61851805 0.418876062,1.73119615 C0.320968502,1.84387424 0.271863348,1.99084819 0.282375,2.13975 L1.263375,16.167375 C1.27403052,16.3165925 1.34357059,16.4554526 1.4566754,16.5533642 C1.56978022,16.6512758 1.71717017,16.7002059 1.866375,16.689375 L4.969125,16.457625 C5.2790625,16.4345625 5.511375,16.1645625 5.48775,15.8551875 C5.464125,15.5458125 5.196375,15.3095625 4.88475,15.336 L2.345625,15.5255625 L2.2325625,13.899375 L4.4353125,13.6783125 C4.58385323,13.6635349 4.7204287,13.5903205 4.81496037,13.4747935 C4.90949205,13.3592665 4.95422679,13.2109021 4.9393125,13.062375 C4.90706831,12.75383 4.63219813,12.5289134 4.323375,12.558375 L2.154375,12.776625 L1.4439375,2.622375 L3.9954375,2.4440625 L2.923875,4.1355 C2.77135961,4.37630629 2.82307608,4.69313008 3.04425,4.8729375 L6.53175,7.7090625 L5.499,12.6185625 C5.48229499,12.7047755 5.48673421,12.7937529 5.5119375,12.877875 C5.50867123,12.9435162 5.51705051,13.0092173 5.5366875,13.0719375 L6.4423125,15.7888125 C6.51278486,16.0009599 6.7023016,16.1511597 6.9249375,16.1713125 L16.120125,17.0071875 C16.2707239,17.0207068 16.4204395,16.9731487 16.5356299,16.8751998 C16.6508203,16.777251 16.7218245,16.6371263 16.7326875,16.4863125 L17.713125,2.458125 C17.7234124,2.30927366 17.6742577,2.16241655 17.5764375,2.04975 Z M15.83775,13.138875 L8.5854375,12.4419375 C8.43654181,12.4253207 8.2872635,12.4697107 8.17164043,12.5649858 C8.05601735,12.6602609 7.98390639,12.798299 7.97175,12.947625 C7.95749216,13.0961401 8.00282119,13.2442358 8.09776353,13.359327 C8.19270587,13.4744182 8.32948285,13.5470755 8.478,13.5613125 L15.7595625,14.2610625 L15.6493125,15.8349375 L7.392375,15.084 L6.6965625,12.997125 L10.8241875,7.547625 C10.9846651,7.33650432 10.9755168,7.0418826 10.80225,6.841125 L8.2423125,3.864375 L9.3864375,2.4395625 L16.551,2.9401875 L15.83775,13.138875 L15.83775,13.138875 Z" id="形状" fill="#CCCCCC"></path>
            </g>
        </g>
    </g>
</svg>