<?xml version="1.0" encoding="UTF-8"?>
<svg width="30px" height="30px" viewBox="0 0 30 30" version="1.1" xmlns="http://www.w3.org/2000/svg" xmlns:xlink="http://www.w3.org/1999/xlink">
    <title>小图标/加载中/树兰</title>
    <g id="app设计规范" stroke="none" stroke-width="1" fill="none" fill-rule="evenodd">
        <g id="3-图标/提示" transform="translate(-71.000000, -3483.000000)" fill-rule="nonzero">
            <g id="小图标/加载中/树兰" transform="translate(71.000000, 3483.000000)">
                <rect id="矩形" fill="#000000" opacity="0" x="0" y="0" width="30" height="30"></rect>
                <path d="M27.9861621,16.8551367 L24.275918,16.8551367 C23.2518457,16.8551367 22.4207812,16.0239844 22.4207812,15 C22.4207812,13.9760156 23.2519336,13.1448633 24.275918,13.1448633 L27.9861621,13.1448633 C29.0102344,13.1448633 29.8412988,13.9760156 29.8412988,15 C29.8412988,16.0239844 29.0101465,16.8551367 27.9861621,16.8551367 L27.9861621,16.8551367 Z" id="路径" fill="#5F77FA" opacity="0.3"></path>
                <path d="M22.8696094,9.75366211 C22.1460938,10.4771777 20.9699414,10.4771777 20.2464258,9.75366211 C19.5229102,9.03014648 19.5229102,7.85399414 20.2464258,7.13047852 L22.8696094,4.50729492 C23.593125,3.7837793 24.7692773,3.7837793 25.492793,4.50729492 C26.2163086,5.23081055 26.2163086,6.40696289 25.492793,7.13047852 L22.8696094,9.75366211 Z" id="路径" fill="#5F77FA" opacity="0.2"></path>
                <path d="M15,29.8412695 C13.9759277,29.8412695 13.1448633,29.0101172 13.1448633,27.9861328 L13.1448633,24.2758887 C13.1448633,23.2518164 13.9760156,22.420752 15,22.420752 C16.0239844,22.420752 16.8551367,23.2519043 16.8551367,24.2758887 L16.8551367,27.9861328 C16.8551367,29.0102051 16.0239844,29.8412695 15,29.8412695 Z" id="路径" fill="#5F77FA" opacity="0.5"></path>
                <path d="M15,7.57930664 C13.9759277,7.57930664 13.1448633,6.7481543 13.1448633,5.72416992 L13.1448633,2.01392578 C13.1448633,0.989853516 13.9760156,0.158789062 15,0.158789062 C16.0239844,0.158789062 16.8551367,0.989941406 16.8551367,2.01392578 L16.8551367,5.72416992 C16.8551367,6.74824219 16.0239844,7.57930664 15,7.57930664 Z" id="路径" fill="#5F77FA" opacity="0.9"></path>
                <path d="M7.13039063,25.4928809 C6.406875,26.2163965 5.23072266,26.2163965 4.50720703,25.4928809 C3.78369141,24.7693652 3.78369141,23.5932129 4.50720703,22.8696973 L7.13039063,20.2465137 C7.85390625,19.522998 9.03005859,19.522998 9.75357422,20.2465137 C10.4770898,20.9700293 10.4770898,22.1461816 9.75357422,22.8696973 L7.13039063,25.4928809 Z" id="路径" fill="#5F77FA" opacity="0.6"></path>
                <path d="M7.13039063,9.75366211 L4.50720703,7.13047852 C3.78369141,6.40696289 3.78369141,5.23081055 4.50720703,4.50729492 C5.23072266,3.7837793 6.406875,3.7837793 7.13039063,4.50729492 L9.75357422,7.13047852 C10.4770898,7.85399414 10.4770898,9.03014648 9.75357422,9.75366211 C9.02636719,10.4771777 7.85390625,10.4771777 7.13039063,9.75366211 Z" id="路径" fill="#5F77FA" opacity="0.8"></path>
                <path d="M7.57930664,15 C7.57930664,16.0240723 6.7481543,16.8551367 5.72416992,16.8551367 L2.01392578,16.8551367 C0.989853516,16.8551367 0.158789062,16.0239844 0.158789062,15 C0.158789062,13.9760156 0.989941406,13.1448633 2.01392578,13.1448633 L5.72416992,13.1448633 C6.74824219,13.1448633 7.57930664,13.9760156 7.57930664,15 Z" id="路径" fill="#5F77FA" opacity="0.8"></path>
                <path d="M22.8696094,20.2463379 L25.492793,22.8695215 C26.2163086,23.5930371 26.2163086,24.7691895 25.492793,25.4927051 C24.7692773,26.2162207 23.593125,26.2162207 22.8696094,25.4927051 L20.2464258,22.8695215 C19.5229102,22.1460059 19.5229102,20.9698535 20.2464258,20.2463379 C20.9736328,19.5228223 22.1460937,19.5228223 22.8696094,20.2463379 Z" id="路径" fill="#5F77FA" opacity="0.4"></path>
            </g>
        </g>
    </g>
</svg>