<?xml version="1.0" encoding="UTF-8"?>
<svg width="16px" height="20px" viewBox="0 0 16 20" version="1.1" xmlns="http://www.w3.org/2000/svg" xmlns:xlink="http://www.w3.org/1999/xlink">
    <title>小图标/地点/线型</title>
    <g id="页面-1" stroke="none" stroke-width="1" fill="none" fill-rule="evenodd">
        <g id="09-标识元素" transform="translate(-425.000000, -1439.000000)" fill-rule="nonzero" stroke="#CCCCCC" stroke-width="1.5">
            <g id="小图标/地点/线型" transform="translate(425.000000, 1439.000000)">
                <path d="M8,0.75 C9.99890842,0.75 11.8114373,1.56195858 13.1243129,2.872536 C14.4366783,4.18260416 15.25,5.99119924 15.25,7.98599609 C15.25,8.96138682 14.8526587,10.1501759 14.1137758,11.5266042 C13.3489956,12.9503946 12.1976279,14.6023561 10.695225,16.4401651 L10.695225,16.4401651 L8.39311471,19.073431 C7.43247327,18.8922094 5.74694498,17.1143313 4.06998739,14.8619953 C1.90927479,11.9610217 0.75,9.65528046 0.75,7.98650391 C0.75,5.99148493 1.56329858,4.18277403 2.87564782,2.87263874 C4.18852449,1.56197691 6.00107049,0.75 8,0.75 Z" id="路径"></path>
                <path d="M8,4.99748047 C8.82587748,4.99748047 9.57464124,5.33305368 10.1170154,5.87449153 C10.6589128,6.41545354 10.995,7.16220684 10.995,7.98601562 C10.995,8.8098164 10.6589182,9.55655149 10.1170275,10.0974983 C9.57465139,10.6389297 8.82588228,10.9744922 8,10.9744922 C7.17411883,10.9744922 6.42535111,10.6389256 5.88297577,10.0974894 C5.34108267,9.55653455 5.005,8.80978841 5.005,7.98597656 C5.005,7.16216739 5.34108087,6.41542731 5.88297173,5.87447755 C6.42534773,5.33304349 7.17411724,4.99748047 8,4.99748047 Z" id="路径"></path>
            </g>
        </g>
    </g>
</svg>