<?xml version="1.0" encoding="UTF-8"?>
<svg width="16px" height="20px" viewBox="0 0 16 20" version="1.1" xmlns="http://www.w3.org/2000/svg" xmlns:xlink="http://www.w3.org/1999/xlink">
    <title>小图标/地点</title>
    <g id="页面-1" stroke="none" stroke-width="1" fill="none" fill-rule="evenodd">
        <g id="09-标识元素" transform="translate(-385.000000, -1439.000000)" fill="#CCCCCC" fill-rule="nonzero">
            <path d="M393.015,1459 L393,1459 C392.651208,1458.99966 392.317661,1458.85699 392.076504,1458.605 C391.8875,1458.4075 390.173496,1456.6 388.468496,1454.31 C386.166992,1451.22 385,1448.755 385,1446.9865 C385,1442.5825 388.589004,1439 393,1439 C397.410996,1439 401,1442.5825 401,1446.986 C401,1448.056 400.5875,1449.36699 399.774492,1450.8815 C398.99,1452.34199 397.810508,1454.0385 396.268008,1455.92449 L396.255508,1455.93949 L393.96,1458.56449 C393.722329,1458.83886 393.377987,1458.99755 393.015,1459 Z M393,1450.72449 C395.065,1450.72449 396.745,1449.0475 396.745,1446.98602 C396.745,1444.92453 395.065,1443.24748 393,1443.24748 C390.935,1443.24748 389.255,1444.92447 389.255,1446.98598 C389.255,1449.04748 390.935,1450.72449 393,1450.72449 Z" id="小图标/地点"></path>
        </g>
    </g>
</svg>