<?xml version="1.0" encoding="UTF-8"?>
<svg width="20px" height="10px" viewBox="0 0 20 10" version="1.1" xmlns="http://www.w3.org/2000/svg" xmlns:xlink="http://www.w3.org/1999/xlink">
    <title>小图标/隐藏密码</title>
    <g id="页面-1" stroke="none" stroke-width="1" fill="none" fill-rule="evenodd">
        <g id="09-标识元素" transform="translate(-169.000000, -1446.000000)" fill="#CCCCCC" fill-rule="nonzero">
            <g id="close" transform="translate(169.000000, 1446.000000)">
                <path d="M0,0.75 C0,1.15625 0.330078125,1.48632812 0.736328125,1.48632812 C1.14257812,1.48632812 1.47265625,1.15625 1.47265625,0.75 C1.47265625,0.34375 1.14257812,0.013671875 0.736328125,0.013671875 C0.330078125,0.013671875 0,0.34375 0,0.75 Z M18.5273438,0.75 C18.5273438,1.15625 18.8574219,1.48632812 19.2636719,1.48632812 C19.6699219,1.48632812 20,1.15625 20,0.75 C20,0.34375 19.6699219,0.013671875 19.2636719,0.013671875 C19.1347656,0.013671875 19.0078125,0.046875 18.8964844,0.111328125 C18.6679688,0.244140625 18.5273438,0.486328125 18.5273438,0.75 Z" id="形状"></path>
                <path d="M10,6.81054688 C5.91015625,6.81054688 2.40039062,4.79492188 0.11328125,1.13671875 L1.359375,0.35546875 C3.36328125,3.5703125 6.43359375,5.33789063 10,5.33789063 C13.5664062,5.33789063 16.6367188,3.5703125 18.640625,0.35546875 L19.8867188,1.13671875 C17.5996094,4.79492188 14.0898438,6.81054688 10,6.81054688 Z" id="路径"></path>
                <path d="M6.51171875,9.84570313 C6.13085937,9.70703125 5.93359375,9.28710938 6.0703125,8.90625 L7.11132812,6.02929688 C7.24609375,5.64648438 7.66601562,5.4453125 8.04882812,5.58007813 C8.43164062,5.71484375 8.6328125,6.13476563 8.49804687,6.51757813 C8.49609375,6.52148438 8.49609375,6.5234375 8.49414062,6.52734375 L7.453125,9.40429688 C7.31445312,9.78515625 6.89453125,9.98242188 6.51171875,9.84570313 Z M0.814453125,6.83203125 C0.53125,6.54296875 0.53125,6.08007813 0.814453125,5.79101563 L2.9765625,3.62890625 C3.26171875,3.33789063 3.72851562,3.33398438 4.01757812,3.61914063 C4.30859375,3.90429688 4.3125,4.37109375 4.02734375,4.66015625 L4.01757812,4.66992188 L1.85742187,6.83203125 C1.5625,7.11523438 1.09765625,7.11523438 0.814453125,6.83203125 Z M19.21875,6.83203125 C19.5019531,6.54296875 19.5019531,6.08007812 19.21875,5.79101562 L17.0546875,3.62695312 C16.7695312,3.3359375 16.3027344,3.33203125 16.0136719,3.6171875 C15.7226562,3.90234375 15.71875,4.36914062 16.0039062,4.65820312 L16.0136719,4.66796875 L18.1757812,6.83007812 C18.4609375,7.11523437 18.9238281,7.11523437 19.21875,6.83203125 L19.21875,6.83203125 Z M13.4902344,9.84570313 C13.8710937,9.70703125 14.0683594,9.28710938 13.9316406,8.90625 L12.890625,6.02929688 C12.7558594,5.64648438 12.3359375,5.4453125 11.953125,5.58007813 C11.5703125,5.71484375 11.3691406,6.13476563 11.5039062,6.51757813 C11.5058594,6.52148438 11.5058594,6.5234375 11.5078125,6.52734375 L12.5488281,9.40429688 C12.6855469,9.78515625 13.1054687,9.98242188 13.4902344,9.84570313 C13.4882812,9.84570313 13.4882812,9.84570313 13.4902344,9.84570313 Z" id="形状"></path>
            </g>
        </g>
    </g>
</svg>