<?xml version="1.0" encoding="UTF-8"?>
<svg width="20px" height="14px" viewBox="0 0 20 14" version="1.1" xmlns="http://www.w3.org/2000/svg" xmlns:xlink="http://www.w3.org/1999/xlink">
    <title>小图标/显示密码</title>
    <g id="页面-1" stroke="none" stroke-width="1" fill="none" fill-rule="evenodd">
        <g id="09-标识元素" transform="translate(-213.000000, -1442.000000)" fill="#CCCCCC" fill-rule="nonzero">
            <g id="open_1-(1)" transform="translate(213.000000, 1442.000000)">
                <path d="M10,4.20402299 C8.45507812,4.20402299 7.2734375,5.41494253 7.2734375,7 C7.2734375,8.58505747 8.45507812,9.79597701 10,9.79597701 C11.5449219,9.79597701 12.7265625,8.58505747 12.7265625,7 C12.7265625,5.41494253 11.5449219,4.20402299 10,4.20402299 Z M10,11.6586207 C7.45507812,11.6586207 5.45507812,9.60890805 5.45507812,7 C5.45507812,4.39109195 7.45507812,2.34137931 10,2.34137931 C12.5449219,2.34137931 14.5449219,4.39109195 14.5449219,7 C14.5449219,9.60890805 12.5449219,11.6586207 10,11.6586207 Z M10,0.0120689655 C5.45507812,0.0120689655 1.54492188,2.90057471 0,7 C1.54492188,11.0994253 5.453125,13.987931 10,13.987931 C14.546875,13.987931 18.4550781,11.0994253 20,7 C18.4550781,2.90057471 14.5449219,0.0120689655 10,0.0120689655 Z" id="形状"></path>
            </g>
        </g>
    </g>
</svg>