<?xml version="1.0" encoding="UTF-8"?>
<svg width="20px" height="20px" viewBox="0 0 20 20" version="1.1" xmlns="http://www.w3.org/2000/svg" xmlns:xlink="http://www.w3.org/1999/xlink">
    <title>小图标/选中-不可选</title>
    <g id="页面-1" stroke="none" stroke-width="1" fill="none" fill-rule="evenodd">
        <g id="07-选择/对话框" transform="translate(-285.000000, -539.000000)">
            <g id="小图标/选中-不可选" transform="translate(285.000000, 539.000000)">
                <path d="M10,0.5 C12.6231027,0.5 14.9980953,1.56346105 16.7173171,3.28268285 C18.436539,5.00190466 19.5,7.37689732 19.5,10 C19.5,12.6231027 18.436539,14.9980953 16.7173171,16.7173171 C14.9980953,18.436539 12.6231027,19.5 10,19.5 C7.37689732,19.5 5.00190466,18.436539 3.28268285,16.7173171 C1.56346105,14.9980953 0.5,12.6231027 0.5,10 C0.5,7.37689732 1.56346105,5.00190466 3.28268285,3.28268285 C5.00190466,1.56346105 7.37689732,0.5 10,0.5 Z" id="选中备份" stroke="#CCCCCC" fill="#DEDEDE"></path>
                <path d="M16.6834753,7.78777589 L9.56407291,14.6922144 C9.35249409,14.8974048 9.07564094,15 8.80103864,15 C8.52643634,15 8.24733236,14.8974048 8.03800437,14.6922144 L4.31736824,11.0861024 C3.89421059,10.6757216 3.89421059,10.01431 4.31736824,9.60392918 C4.74052589,9.19354839 5.42252997,9.19354839 5.84568762,9.60392918 L8.80103864,12.4700461 L15.1551559,6.30778559 C15.5783135,5.8974048 16.2603176,5.8974048 16.6834753,6.30778559 C17.1066329,6.71816638 17.1043821,7.3773951 16.6834753,7.78777589 Z" id="路径" fill="#FFFFFF"></path>
            </g>
        </g>
    </g>
</svg>