<?xml version="1.0" encoding="UTF-8"?>
<svg width="20px" height="20px" viewBox="0 0 20 20" version="1.1" xmlns="http://www.w3.org/2000/svg" xmlns:xlink="http://www.w3.org/1999/xlink">
    <title>小图标/警示/线型</title>
    <g id="页面-1" stroke="none" stroke-width="1" fill="none" fill-rule="evenodd">
        <g id="09-标识元素" transform="translate(-555.000000, -1439.000000)">
            <g id="小图标/警示/线型" transform="translate(555.000000, 1439.000000)">
                <path d="M10,1 C12.4852795,1 14.7352817,2.00735852 16.3639629,3.63603975 C17.9926407,5.26471753 19,7.51471546 19,10 C19,12.4852872 17.9926442,14.7352875 16.3639659,16.3639659 C14.7352875,17.9926442 12.4852872,19 10,19 C7.51471546,19 5.26471753,17.9926407 3.63603975,16.3639629 C2.00735852,14.7352817 1,12.4852795 1,10 C1,7.51472046 2.00735852,5.26471831 3.63603975,3.63603708 C5.26471753,2.0073593 7.51471546,1 10,1 Z" id="小图标/警示备份" stroke="#F36969" stroke-width="2" fill-rule="nonzero"></path>
                <path d="M9.95508009,15.5291075 C9.32844394,15.5291075 8.82038902,15.0128604 8.82038902,14.3762014 C8.82038902,13.7395423 9.32844394,13.2233181 9.95508009,13.2233181 C10.5818993,13.2233181 11.0897025,13.7395423 11.0897025,14.3762014 C11.0897025,15.0128604 10.5818764,15.5291075 9.95508009,15.5291075 Z" id="路径" fill="#F36969" fill-rule="nonzero"></path>
                <rect id="矩形" fill="#F36969" x="9" y="4" width="2" height="8" rx="1"></rect>
            </g>
        </g>
    </g>
</svg>