<?xml version="1.0" encoding="UTF-8"?>
<svg width="20px" height="20px" viewBox="0 0 20 20" version="1.1" xmlns="http://www.w3.org/2000/svg" xmlns:xlink="http://www.w3.org/1999/xlink">
    <title>小图标/关于备份</title>
    <g id="页面-1" stroke="none" stroke-width="1" fill="none" fill-rule="evenodd">
        <g id="09-标识元素" transform="translate(-113.000000, -1439.000000)" fill-rule="nonzero">
            <g id="小图标/关于备份" transform="translate(113.000000, 1439.000000)">
                <path d="M10,20 L10,20 C4.47715273,20 0,15.5228475 0,10 C0,4.4771525 4.47715273,0 10,0 C15.5228473,0 20,4.4771525 20,10 C20,15.5228475 15.5228473,20 10,20 L10,20 Z" id="形状" fill="#CCCCCC"></path>
                <polygon id="路径" fill="#FFFFFF" points="8.18181818 7.72727273 9.09090908 7.72727273 9.09090908 8.18181818 8.18181818 8.18181818"></polygon>
                <path d="M9.88636363,6.59090908 C10.5767196,6.59090908 11.1363636,6.03126504 11.1363636,5.34090908 C11.1363636,4.65055314 10.5767196,4.09090908 9.88636363,4.09090908 C9.19600773,4.09090908 8.63636363,4.65055314 8.63636363,5.34090908 C8.63636363,6.03126504 9.19600773,6.59090908 9.88636363,6.59090908 Z" id="路径" fill="#FFFFFF"></path>
                <polygon id="路径" fill="#FFFFFF" points="10.9090909 15 10.9090909 7.72727273 9.09090908 7.72727273 9.09090908 15 8.18181818 15 8.18181818 15.4545454 11.8181818 15.4545454 11.8181818 15"></polygon>
            </g>
        </g>
    </g>
</svg>