<?xml version="1.0" encoding="UTF-8"?>
<svg width="20px" height="20px" viewBox="0 0 20 20" version="1.1" xmlns="http://www.w3.org/2000/svg" xmlns:xlink="http://www.w3.org/1999/xlink">
    <title>done</title>
    <g id="页面-1" stroke="none" stroke-width="1" fill="none" fill-rule="evenodd">
        <g id="09-标识元素" transform="translate(-306.000000, -853.000000)" fill-rule="nonzero">
            <g id="done" transform="translate(306.000000, 853.000000)">
                <rect id="矩形" fill="#000000" opacity="0" x="0" y="0" width="20" height="20"></rect>
                <path d="M10,0 C4.4765625,0 0,4.4765625 0,10 C0,15.5234375 4.4765625,20 10,20 C15.5234375,20 20,15.5214844 20,10 C20,4.47851562 15.5234375,0 10,0 Z" id="路径" fill="#4ACFB1"></path>
                <path d="M14.7167969,7.9921875 L9.36328125,13.3496094 C8.91601562,13.796875 8.47070312,13.796875 8.0234375,13.3496094 C7.57617187,12.9023438 7.57617187,12.4550781 8.0234375,12.0097656 L13.3769531,6.65234375 C13.8242188,6.20507813 14.2695312,6.20507813 14.7167969,6.65234375 C15.1640625,7.09765625 15.1640625,7.54492188 14.7167969,7.9921875 Z" id="路径" fill="#FFFFFF"></path>
                <path d="M7.99414062,13.3496094 L5.28320312,10.6367188 C4.8359375,10.1894531 4.8359375,9.7421875 5.28320312,9.296875 C5.73046875,8.84960938 6.17578125,8.84960938 6.62304688,9.296875 L9.33398438,12.0097656 C9.78125,12.4570312 9.78125,12.9042969 9.33398438,13.3496094 C8.88671875,13.796875 8.43945312,13.796875 7.99414063,13.3496094 L7.99414062,13.3496094 Z" id="路径" fill="#FFFFFF"></path>
            </g>
        </g>
    </g>
</svg>