<?xml version="1.0" encoding="UTF-8"?>
<svg width="20px" height="20px" viewBox="0 0 20 20" version="1.1" xmlns="http://www.w3.org/2000/svg" xmlns:xlink="http://www.w3.org/1999/xlink">
    <title>小图标/勾选备份 2</title>
    <g id="页面-1" stroke="none" stroke-width="1" fill="none" fill-rule="evenodd">
        <g id="09-标识元素" transform="translate(-216.000000, -852.000000)" fill-rule="nonzero">
            <g id="小图标/勾选备份-2" transform="translate(216.000000, 852.000000)">
                <path d="M10,1 C12.4855469,1 14.7355633,2.00719878 16.3641823,3.63581772 C17.9928012,5.26443666 19,7.51445312 19,10 C19,12.4855469 17.9928012,14.7355633 16.3641823,16.3641823 C14.7355633,17.9928012 12.4855469,19 10,19 C7.51467918,19 5.26487026,17.9925024 3.63629773,16.3639299 C2.00743136,14.7350635 1,12.4848939 1,10 C1,7.51510606 2.00743136,5.26493647 3.63629773,3.6360701 C5.26487026,2.00749757 7.51467918,1 10,1 Z" id="路径" stroke="#F36969" stroke-width="2"></path>
                <path d="M5.81566347,9 L14.1843365,9 C14.6357729,9 15,9.44863732 15,10 C15,10.5534591 14.6340629,11 14.1843365,11 L5.81566347,11 C5.36422709,11 5,10.5513627 5,10 C5,9.44863732 5.36593707,9 5.81566347,9 L5.81566347,9 Z" id="路径" fill="#F36969"></path>
            </g>
        </g>
    </g>
</svg>