<?xml version="1.0" encoding="UTF-8"?>
<svg width="20px" height="20px" viewBox="0 0 20 20" version="1.1" xmlns="http://www.w3.org/2000/svg" xmlns:xlink="http://www.w3.org/1999/xlink">
    <title>wrong</title>
    <g id="页面-1" stroke="none" stroke-width="1" fill="none" fill-rule="evenodd">
        <g id="09-标识元素" transform="translate(-352.000000, -853.000000)" fill-rule="nonzero">
            <g id="wrong" transform="translate(352.000000, 853.000000)">
                <rect id="矩形" fill="#000000" opacity="0" x="0" y="0" width="20" height="20"></rect>
                <path d="M10,0 C4.4765625,0 0,4.4765625 0,10 C0,15.5234375 4.4765625,20 10,20 C15.5234375,20 20,15.5214844 20,10 C20,4.47851562 15.5234375,0 10,0 Z" id="路径" fill="#F36969"></path>
                <path d="M11.3730469,9.9921875 L13.9648438,7.40039062 C14.34375,7.02148438 14.34375,6.40625 13.9648438,6.02734375 C13.5859375,5.6484375 12.9707031,5.6484375 12.5917969,6.02734375 L10,8.62109375 L7.40625,6.02734375 C7.02734375,5.6484375 6.41210938,5.6484375 6.03320312,6.02734375 C5.65429688,6.40625 5.65429688,7.02148438 6.03320312,7.40039063 L8.62695312,9.99414062 L6.03515625,12.5859375 C5.65625,12.9648438 5.65625,13.5800781 6.03515625,13.9589844 C6.4140625,14.3378906 7.02929688,14.3378906 7.40820313,13.9589844 L10,11.3652344 L12.59375,13.9589844 C12.9726562,14.3378906 13.5878906,14.3378906 13.9667969,13.9589844 C14.3457031,13.5800781 14.3457031,12.9648438 13.9667969,12.5859375 L11.3730469,9.9921875 Z" id="路径" fill="#FFFFFF"></path>
            </g>
        </g>
    </g>
</svg>