<?xml version="1.0" encoding="UTF-8"?>
<svg width="20px" height="20px" viewBox="0 0 20 20" version="1.1" xmlns="http://www.w3.org/2000/svg" xmlns:xlink="http://www.w3.org/1999/xlink">
    <title>小图标/搜索</title>
    <g id="页面-1" stroke="none" stroke-width="1" fill="none" fill-rule="evenodd">
        <g id="09-标识元素" transform="translate(-261.000000, -1439.000000)" fill="#CCCCCC" fill-rule="nonzero">
            <path d="M280.705631,1457.28552 L277.12076,1453.7003 C278.359617,1452.15102 279.105163,1450.19098 279.105163,1448.05458 C279.102931,1443.05402 275.051535,1439 270.051465,1439 C265.051396,1439 261,1443.05402 261,1448.05235 C261,1453.05068 265.053628,1457.1047 270.051465,1457.1047 C272.187656,1457.1047 274.149737,1456.35908 275.696633,1455.1201 L279.281505,1458.70532 C279.674367,1459.09823 280.310537,1459.09823 280.703399,1458.70532 C281.098494,1458.31466 281.098494,1457.67842 280.705631,1457.28552 Z M270.051465,1455.09331 C266.163018,1455.09331 263.011189,1451.94118 263.011189,1448.05235 C263.011189,1444.16352 266.163018,1441.01139 270.051465,1441.01139 C273.939912,1441.01139 277.091742,1444.16352 277.091742,1448.05235 C277.091742,1451.94118 273.939912,1455.09331 270.051465,1455.09331 Z" id="小图标/搜索"></path>
        </g>
    </g>
</svg>