<?xml version="1.0" encoding="UTF-8"?>
<svg width="20px" height="20px" viewBox="0 0 20 20" version="1.1" xmlns="http://www.w3.org/2000/svg" xmlns:xlink="http://www.w3.org/1999/xlink">
    <title>小图标/警示</title>
    <g id="页面-1" stroke="none" stroke-width="1" fill="none" fill-rule="evenodd">
        <g id="09-标识元素" transform="translate(-511.000000, -1439.000000)" fill="#F36969" fill-rule="nonzero">
            <path d="M521,1439 C515.47714,1439 511,1443.47716 511,1449 C511,1454.52284 515.47714,1459 521,1459 C526.52286,1459 531,1454.52286 531,1449 C531,1443.47714 526.522838,1439 521,1439 Z M520.95508,1452.22332 C521.581899,1452.22332 522.089703,1452.73954 522.089703,1453.3762 C522.089703,1454.01286 521.581876,1454.52911 520.95508,1454.52911 C520.328444,1454.52911 519.820389,1454.01286 519.820389,1453.3762 C519.820389,1452.73954 520.328444,1452.22332 520.95508,1452.22332 Z M521,1443 C521.552285,1443 522,1443.44772 522,1444 L522,1450 C522,1450.55228 521.552285,1451 521,1451 C520.447715,1451 520,1450.55228 520,1450 L520,1444 C520,1443.44772 520.447715,1443 521,1443 Z" id="小图标/警示"></path>
        </g>
    </g>
</svg>