<?xml version="1.0" encoding="UTF-8"?>
<svg width="20px" height="20px" viewBox="0 0 20 20" version="1.1" xmlns="http://www.w3.org/2000/svg" xmlns:xlink="http://www.w3.org/1999/xlink">
    <title>wrong备份</title>
    <g id="页面-1" stroke="none" stroke-width="1" fill="none" fill-rule="evenodd">
        <g id="09-标识元素" transform="translate(-444.000000, -853.000000)" fill-rule="nonzero">
            <g id="wrong备份" transform="translate(444.000000, 853.000000)">
                <rect id="矩形" fill="#000000" opacity="0" x="0" y="0" width="20" height="20"></rect>
                <path d="M10,1 C12.4853208,1 14.7351297,2.00749757 16.3637023,3.6360701 C17.9925686,5.26493647 19,7.51510606 19,10 C19,12.4848939 17.9925686,14.7350635 16.3637023,16.3639299 C14.7351297,17.9925024 12.4853208,19 10,19 C7.51445312,19 5.26443666,17.9928012 3.63581772,16.3641823 C2.00719878,14.7355633 1,12.4855469 1,10 C1,7.51445312 2.00719878,5.26443666 3.63581772,3.63581772 C5.26443666,2.00719878 7.51445313,1 10,1 Z" id="路径" stroke="#F36969" stroke-width="2"></path>
                <path d="M11.3730469,9.9921875 L13.9648438,7.40039062 C14.34375,7.02148438 14.34375,6.40625 13.9648438,6.02734375 C13.5859375,5.6484375 12.9707031,5.6484375 12.5917969,6.02734375 L10,8.62109375 L7.40625,6.02734375 C7.02734375,5.6484375 6.41210938,5.6484375 6.03320312,6.02734375 C5.65429688,6.40625 5.65429688,7.02148438 6.03320312,7.40039063 L8.62695312,9.99414062 L6.03515625,12.5859375 C5.65625,12.9648438 5.65625,13.5800781 6.03515625,13.9589844 C6.4140625,14.3378906 7.02929688,14.3378906 7.40820313,13.9589844 L10,11.3652344 L12.59375,13.9589844 C12.9726562,14.3378906 13.5878906,14.3378906 13.9667969,13.9589844 C14.3457031,13.5800781 14.3457031,12.9648438 13.9667969,12.5859375 L11.3730469,9.9921875 Z" id="路径" fill="#F36969"></path>
            </g>
        </g>
    </g>
</svg>