<?xml version="1.0" encoding="UTF-8"?>
<svg width="20px" height="20px" viewBox="0 0 20 20" version="1.1" xmlns="http://www.w3.org/2000/svg" xmlns:xlink="http://www.w3.org/1999/xlink">
    <title>小图标/关于</title>
    <g id="页面-1" stroke="none" stroke-width="1" fill="none" fill-rule="evenodd">
        <g id="09-标识元素" transform="translate(-77.000000, -1439.000000)" fill-rule="nonzero">
            <g id="小图标/关于" transform="translate(77.000000, 1439.000000)">
                <rect id="矩形" fill="#000000" opacity="0" x="0" y="0" width="20" height="20"></rect>
                <path d="M9.88636363,6.59090908 C10.5767196,6.59090908 11.1363636,6.03126504 11.1363636,5.34090908 C11.1363636,4.65055314 10.5767196,4.09090908 9.88636363,4.09090908 C9.19600773,4.09090908 8.63636363,4.65055314 8.63636363,5.34090908 C8.63636363,6.03126504 9.19600773,6.59090908 9.88636363,6.59090908 Z M10.9090909,15 L10.9090909,7.72727273 L9.09090908,7.72727273 L9.09090908,15 L8.18181818,15 L8.18181818,15.4545454 L11.8181818,15.4545454 L11.8181818,15 L10.9090909,15 L10.9090909,15 Z M8.18181818,7.72727273 L9.09090908,7.72727273 L9.09090908,8.18181818 L8.18181818,8.18181818 L8.18181818,7.72727273 Z M10,19.0909091 L10,19.0909091 C15.0207704,19.0909091 19.0909091,15.0207704 19.0909091,10 C19.0909091,4.97922955 15.0207704,0.909090918 10,0.909090918 C4.97922955,0.909090918 0.909090918,4.97922955 0.909090918,10 C0.909090918,15.0207704 4.97922955,19.0909091 10,19.0909091 L10,19.0909091 Z M10,20 L10,20 C4.47715273,20 0,15.5228475 0,10 C0,4.4771525 4.47715273,0 10,0 C15.5228473,0 20,4.4771525 20,10 C20,15.5228475 15.5228473,20 10,20 L10,20 Z" id="形状" fill="#CCCCCC"></path>
            </g>
        </g>
    </g>
</svg>