<?xml version="1.0" encoding="UTF-8"?>
<svg width="10px" height="16px" viewBox="0 0 10 16" version="1.1" xmlns="http://www.w3.org/2000/svg" xmlns:xlink="http://www.w3.org/1999/xlink">
    <title>小图标/箭头</title>
    <g id="页面-1" stroke="none" stroke-width="1" fill="none" fill-rule="evenodd">
        <g id="09-标识元素" transform="translate(-311.000000, -1441.000000)" fill="#CCCCCC" fill-rule="nonzero">
            <g id="小图标/箭头" transform="translate(316.000000, 1449.000000) rotate(-180.000000) translate(-316.000000, -1449.000000) translate(311.000000, 1441.000000)">
                <path d="M-0.19411255,10.5941125 L9.40588745,10.5941125 C9.84771525,10.5941125 10.2058875,10.9522847 10.2058875,11.3941125 C10.2058875,11.8359403 9.84771525,12.1941125 9.40588745,12.1941125 L-0.19411255,12.1941125 C-0.63594035,12.1941125 -0.99411255,11.8359403 -0.99411255,11.3941125 C-0.99411255,10.9522847 -0.63594035,10.5941125 -0.19411255,10.5941125 Z" id="矩形" transform="translate(4.605887, 11.394113) rotate(-315.000000) translate(-4.605887, -11.394113) "></path>
                <path d="M-0.19411255,3.80588745 L9.40588745,3.80588745 C9.84771525,3.80588745 10.2058875,4.16405965 10.2058875,4.60588745 C10.2058875,5.04771525 9.84771525,5.40588745 9.40588745,5.40588745 L-0.19411255,5.40588745 C-0.63594035,5.40588745 -0.99411255,5.04771525 -0.99411255,4.60588745 C-0.99411255,4.16405965 -0.63594035,3.80588745 -0.19411255,3.80588745 Z" id="矩形-copy" transform="translate(4.605887, 4.605887) rotate(-45.000000) translate(-4.605887, -4.605887) "></path>
            </g>
        </g>
    </g>
</svg>